<svg width="60" height="55" viewBox="1 -2 55 55" fill="none" xmlns="http://www.w3.org/2000/svg">
<mask id="mask0_2_23" style="mask-type:luminance" maskUnits="userSpaceOnUse" x="0" y="0" width="55" height="55">
<path d="M0 0H55V55H0V0Z" fill="white"/>
</mask>
<g mask="url(#mask0_2_23)">
<path d="M44.6875 38.9584H21.0719C19.2156 38.9584 18.2898 38.9584 17.6481 38.4152C17.0065 37.8721 16.8552 36.9577 16.5481 35.1267L13.2412 15.2579C12.9365 13.4292 12.7829 12.5148 12.1435 11.9717C11.5019 11.4286 10.576 11.4286 8.71979 11.4286H6.875M13.4223 16.0417L39.3365 16.0256C43.2415 16.0256 45.194 16.0233 46.4452 17.0111C46.9776 17.4326 47.4097 17.9673 47.7102 18.5763C48.4183 20.0063 48.0081 21.9152 47.1923 25.7354C46.6354 28.3319 46.3581 29.6313 45.5652 30.5296C45.2238 30.9171 44.8193 31.244 44.369 31.4967C43.324 32.0834 41.9971 32.0834 39.341 32.0834H16.044" stroke="black" stroke-width="4" stroke-linecap="round" stroke-linejoin="round"/>
<path d="M45.8333 46.9791C45.8333 47.8908 45.4712 48.7651 44.8265 49.4098C44.1819 50.0545 43.3075 50.4166 42.3958 50.4166C41.4842 50.4166 40.6098 50.0545 39.9652 49.4098C39.3205 48.7651 38.9583 47.8908 38.9583 46.9791C38.9583 46.0674 39.3205 45.1931 39.9652 44.5484C40.6098 43.9038 41.4842 43.5416 42.3958 43.5416C43.3075 43.5416 44.1819 43.9038 44.8265 44.5484C45.4712 45.1931 45.8333 46.0674 45.8333 46.9791ZM24.0625 46.9791C24.0625 47.8908 23.7003 48.7651 23.0557 49.4098C22.411 50.0545 21.5367 50.4166 20.625 50.4166C19.7133 50.4166 18.839 50.0545 18.1943 49.4098C17.5497 48.7651 17.1875 47.8908 17.1875 46.9791C17.1875 46.0674 17.5497 45.1931 18.1943 44.5484C18.839 43.9038 19.7133 43.5416 20.625 43.5416C21.5367 43.5416 22.411 43.9038 23.0557 44.5484C23.7003 45.1931 24.0625 46.0674 24.0625 46.9791Z" fill="black"/>
</g>
</svg>
