<svg xmlns="http://www.w3.org/2000/svg" viewBox="0 0 1024 1024" preserveAspectRatio="xMidYMid meet"><g><path d="M0 0 C337.92 0 675.84 0 1024 0 C1024 337.92 1024 675.84 1024 1024 C686.08 1024 348.16 1024 0 1024 C0 686.08 0 348.16 0 0 Z " fill="#FEFEF7" transform="translate(0,0)"/></g><g><path d="M0 0 C5.098 4.668 7.918 10.904 8.848 17.711 C9.048 26.908 7.844 36.143 2 43.566 C-6.683 52.042 -16.99 53.567 -28.614 53.533 C-38.012 53.26 -45.241 50.464 -52.043 43.969 C-55.026 40.591 -56.637 37.676 -56.637 33.164 C-84.283 37.562 -84.283 37.562 -106.637 53.164 C-113.964 64.288 -115.947 78.369 -118.77 91.16 C-120.306 98.007 -122.154 104.591 -124.637 111.164 C-123.317 111.824 -121.997 112.484 -120.637 113.164 C-120.203 118.365 -120.203 118.365 -120.637 121.164 C-123.425 124.184 -125.707 125.299 -129.637 126.164 C-129.757 126.765 -129.877 127.367 -130 127.986 C-132.293 139.398 -134.702 150.758 -137.574 162.039 C-141.768 178.52 -145.548 195.087 -149.143 211.709 C-149.432 213.048 -149.722 214.387 -150.012 215.727 C-150.156 216.395 -150.301 217.063 -150.449 217.752 C-152.842 228.794 -155.449 239.773 -158.148 250.744 C-160.586 260.667 -162.866 270.61 -165.012 280.602 C-167.904 294.07 -171.059 307.466 -174.286 320.858 C-176.506 330.076 -178.702 339.295 -180.691 348.566 C-180.849 349.3 -181.007 350.033 -181.169 350.788 C-181.894 354.175 -182.607 357.563 -183.305 360.955 C-187.576 381.204 -187.576 381.204 -192.637 384.852 C-195.637 386.164 -195.637 386.164 -199.637 386.164 C-199.967 387.814 -200.297 389.464 -200.637 391.164 C-204.002 392.286 -206.727 392.372 -210.273 392.48 C-211.572 392.522 -212.871 392.564 -214.209 392.607 C-215.581 392.647 -216.952 392.687 -218.324 392.727 C-219.708 392.77 -221.091 392.813 -222.475 392.857 C-225.862 392.964 -229.249 393.066 -232.637 393.164 C-231.997 393.948 -231.358 394.732 -230.699 395.539 C-227.478 399.639 -227.129 401.915 -227.637 407.164 C-229.06 410.015 -230.764 412.59 -232.637 415.164 C-231.933 415.429 -231.229 415.694 -230.503 415.967 C-227.46 417.238 -224.653 418.723 -221.77 420.324 C-220.645 420.948 -219.52 421.572 -218.362 422.215 C-217.161 422.885 -215.962 423.556 -214.762 424.227 C-214.15 424.568 -213.538 424.908 -212.907 425.26 C-205.125 429.597 -197.416 434.021 -189.816 438.672 C-185.712 441.152 -181.534 443.496 -177.357 445.852 C-141.635 466.005 -141.635 466.005 -129.637 478.164 C-129.008 478.771 -128.379 479.378 -127.73 480.004 C-118.886 489.178 -114.453 500.821 -114.324 513.352 C-114.295 514.273 -114.266 515.194 -114.236 516.143 C-114.165 523.913 -116.03 528.994 -120.949 534.977 C-126.77 539.715 -131.937 540.607 -139.195 540.457 C-139.984 540.453 -140.774 540.449 -141.587 540.444 C-144.083 540.428 -146.578 540.39 -149.074 540.352 C-150.777 540.336 -152.479 540.323 -154.182 540.311 C-158.334 540.278 -162.485 540.226 -166.637 540.164 C-166.227 540.828 -165.817 541.492 -165.395 542.176 C-164.856 543.059 -164.317 543.942 -163.762 544.852 C-163.228 545.722 -162.694 546.592 -162.145 547.488 C-157.622 555.514 -156.796 565.236 -159.171 574.176 C-162.921 584.64 -170.243 592.833 -180.199 597.727 C-189.422 600.849 -200.305 600.798 -209.137 596.664 C-219.154 590.777 -226.638 583.491 -230.273 572.184 C-231.858 563.373 -230.702 555.119 -226.637 547.164 C-224.987 544.854 -223.337 542.544 -221.637 540.164 C-308.097 540.164 -394.557 540.164 -483.637 540.164 C-479.677 548.084 -479.677 548.084 -475.637 556.164 C-474.362 569.552 -476.632 577.973 -484.953 588.352 C-486.637 590.164 -486.637 590.164 -489.637 592.164 C-485.017 592.824 -480.397 593.484 -475.637 594.164 C-475.307 595.154 -474.977 596.144 -474.637 597.164 C-486.159 602.925 -505.082 600.444 -517.668 600.395 C-519.722 600.393 -521.776 600.393 -523.83 600.393 C-528.096 600.392 -532.361 600.383 -536.627 600.37 C-542.068 600.353 -547.509 600.349 -552.949 600.35 C-557.176 600.35 -561.402 600.344 -565.628 600.337 C-567.634 600.334 -569.64 600.332 -571.646 600.331 C-598.878 600.31 -598.878 600.31 -606.637 597.164 C-606.307 596.174 -605.977 595.184 -605.637 594.164 C-597.106 592.23 -588.943 591.898 -580.219 591.969 C-578.867 591.972 -577.515 591.975 -576.163 591.977 C-572.643 591.985 -569.124 592.004 -565.604 592.027 C-561.997 592.047 -558.39 592.056 -554.783 592.066 C-547.734 592.088 -540.686 592.122 -533.637 592.164 C-533.637 591.504 -533.637 590.844 -533.637 590.164 C-534.234 589.919 -534.83 589.674 -535.445 589.422 C-539.451 587.122 -541.366 583.075 -543.637 579.164 C-543.983 578.567 -544.33 577.97 -544.688 577.355 C-548.268 569.736 -548.14 559.398 -545.359 551.566 C-543.368 547.56 -541.116 543.883 -538.637 540.164 C-539.221 540.185 -539.804 540.206 -540.406 540.228 C-562.205 540.908 -562.205 540.908 -572.574 534.289 C-575.989 530.77 -577.42 527.63 -578.137 522.789 C-577.289 516.645 -574.204 512.732 -569.887 508.414 C-559.599 501.292 -548.918 499.988 -536.628 500.194 C-525.768 500.732 -525.768 500.732 -515.93 497.043 C-513.272 494.331 -513.272 494.331 -511.02 491.27 C-508.272 487.689 -505.288 485.284 -501.699 482.602 C-500.501 481.685 -499.305 480.767 -498.109 479.848 C-497.526 479.4 -496.942 478.953 -496.34 478.492 C-493.717 476.448 -491.179 474.307 -488.637 472.164 C-483.854 468.148 -478.988 464.261 -474.067 460.417 C-468.373 455.968 -462.73 451.456 -457.094 446.934 C-455.055 445.298 -453.012 443.671 -450.961 442.051 C-448.503 440.108 -446.066 438.143 -443.637 436.164 C-443.102 435.732 -442.567 435.299 -442.016 434.854 C-428.146 423.572 -416.218 411.317 -410.969 393.836 C-410.629 392.727 -410.629 392.727 -410.283 391.595 C-409.73 389.786 -409.183 387.975 -408.637 386.164 C-409.318 386.168 -409.998 386.171 -410.7 386.175 C-427.267 386.264 -443.834 386.33 -460.401 386.371 C-468.413 386.392 -476.424 386.42 -484.436 386.466 C-491.419 386.506 -498.402 386.531 -505.385 386.54 C-509.082 386.546 -512.78 386.558 -516.477 386.587 C-520.605 386.619 -524.732 386.62 -528.86 386.618 C-530.086 386.633 -531.311 386.647 -532.574 386.662 C-540.865 386.621 -540.865 386.621 -544.873 384.248 C-546.577 382.234 -547.48 380.928 -548.199 378.414 C-548.549 377.202 -548.549 377.202 -548.906 375.965 C-549.268 374.578 -549.268 374.578 -549.637 373.164 C-549.909 372.168 -550.181 371.171 -550.461 370.145 C-553.073 360.148 -555.214 350.043 -557.403 339.947 C-559.813 328.828 -562.337 317.741 -564.941 306.665 C-567.206 297.026 -569.433 287.38 -571.637 277.727 C-571.89 276.619 -571.89 276.619 -572.148 275.489 C-574.474 265.302 -576.779 255.109 -579.074 244.914 C-581.746 233.051 -584.462 221.199 -587.199 209.352 C-587.393 208.513 -587.586 207.675 -587.786 206.812 C-589.606 198.931 -591.43 191.05 -593.262 183.172 C-596.044 171.192 -598.773 159.201 -601.458 147.199 C-601.825 145.561 -602.193 143.923 -602.562 142.285 C-603.077 139.997 -603.588 137.707 -604.098 135.418 C-604.254 134.729 -604.409 134.039 -604.57 133.329 C-605.188 130.534 -605.637 128.038 -605.637 125.164 C-606.379 125.247 -607.122 125.329 -607.887 125.414 C-610.637 125.164 -610.637 125.164 -612.949 123.602 C-615.255 120.271 -615.142 118.132 -614.637 114.164 C-613.601 112.472 -613.601 112.472 -611.637 111.164 C-608.938 110.873 -606.471 110.767 -603.771 110.795 C-602.55 110.79 -602.55 110.79 -601.305 110.784 C-598.554 110.776 -595.804 110.79 -593.053 110.803 C-591.071 110.802 -589.088 110.799 -587.106 110.796 C-581.64 110.789 -576.174 110.801 -570.708 110.816 C-564.82 110.829 -558.933 110.824 -553.045 110.822 C-542.173 110.82 -531.301 110.832 -520.428 110.85 C-510.387 110.867 -500.346 110.876 -490.305 110.879 C-489.639 110.88 -488.974 110.88 -488.289 110.88 C-484.911 110.881 -481.532 110.882 -478.154 110.883 C-454.213 110.889 -430.273 110.909 -406.332 110.938 C-383.072 110.965 -359.811 110.987 -336.55 110.999 C-335.475 111 -335.475 111 -334.378 111 C-327.18 111.004 -319.982 111.008 -312.785 111.012 C-298.121 111.02 -283.458 111.028 -268.795 111.037 C-268.121 111.037 -267.446 111.038 -266.752 111.038 C-221.713 111.066 -176.675 111.113 -131.637 111.164 C-131.543 110.152 -131.543 110.152 -131.448 109.119 C-131.363 108.227 -131.278 107.336 -131.19 106.417 C-131.108 105.536 -131.025 104.655 -130.939 103.747 C-130.516 100.138 -129.693 96.709 -128.746 93.207 C-128.56 92.497 -128.373 91.788 -128.181 91.056 C-127.788 89.569 -127.391 88.083 -126.991 86.597 C-126.391 84.369 -125.808 82.137 -125.227 79.904 C-116.664 47.487 -116.664 47.487 -102.637 39.164 C-94.311 34.526 -85.958 30.345 -76.637 28.164 C-75.553 27.888 -74.469 27.612 -73.352 27.328 C-67.982 26.009 -63.192 24.989 -57.637 25.164 C-57.637 23.514 -57.637 21.864 -57.637 20.164 C-79.237 23.044 -101.619 29.186 -116.637 46.164 C-121.092 52.059 -123.195 58.222 -125.137 65.289 C-125.432 66.328 -125.728 67.367 -126.032 68.437 C-128.303 76.569 -130.249 84.763 -131.951 93.032 C-132.965 97.826 -134.18 101.858 -136.637 106.164 C-138.303 106.207 -139.971 106.205 -141.637 106.164 C-141.967 105.834 -142.297 105.504 -142.637 105.164 C-142.24 96.95 -140.009 89.109 -137.936 81.191 C-137.329 78.869 -136.733 76.545 -136.139 74.221 C-130.858 53.731 -125.102 38.115 -106.089 26.637 C-97.348 21.6 -88.273 18.082 -78.637 15.164 C-77.519 14.824 -76.401 14.483 -75.25 14.133 C-68.948 12.39 -63.164 11.774 -56.637 12.164 C-56.637 11.36 -56.637 10.555 -56.637 9.727 C-54.893 3.516 -50.755 -0.795 -45.398 -4.301 C-31.583 -10.492 -12.288 -8.556 0 0 Z " fill="#3B2429" transform="translate(834.63671875,266.8359375)"/></g><g><path d="M0 0 C36.63 0 73.26 0 111 0 C110.67 0.99 110.34 1.98 110 3 C108.988 12.63 110.632 18.591 116.656 26.051 C125.226 35.401 137.89 41.159 148.875 47.188 C151.253 48.5 153.631 49.814 156.008 51.129 C156.895 51.619 156.895 51.619 157.8 52.119 C166.303 56.82 174.747 61.623 183.198 66.416 C186.016 68.009 188.839 69.592 191.664 71.172 C201.95 76.933 212.172 82.798 222.312 88.812 C223.332 89.41 224.351 90.008 225.402 90.625 C238.144 98.241 249.91 106.931 254.625 121.637 C255.167 125.051 255 128.543 255 132 C243.78 132 232.56 132 221 132 C221.66 130.68 222.32 129.36 223 128 C223.583 125.043 223.583 125.043 223 122 C219.697 117.597 216.3 115.905 211 115 C206.732 114.719 202.475 114.739 198.2 114.759 C196.907 114.758 195.615 114.756 194.284 114.754 C190.708 114.75 187.132 114.758 183.556 114.768 C179.696 114.777 175.836 114.774 171.976 114.772 C165.292 114.771 158.607 114.777 151.923 114.789 C142.259 114.805 132.595 114.81 122.93 114.813 C107.25 114.817 91.57 114.83 75.889 114.849 C60.659 114.867 45.428 114.882 30.198 114.89 C29.259 114.891 28.32 114.891 27.352 114.892 C22.641 114.894 17.93 114.897 13.219 114.899 C-25.854 114.92 -64.927 114.955 -104 115 C-102.203 111.069 -99.736 108.768 -96.438 106.062 C-95.872 105.591 -95.306 105.119 -94.723 104.633 C-89.321 100.174 -83.752 95.933 -78.169 91.704 C-73.239 87.968 -68.426 84.117 -63.664 80.168 C-60.699 77.755 -57.668 75.437 -54.625 73.125 C-47.877 67.985 -41.429 62.53 -35 57 C-34.248 56.374 -33.497 55.747 -32.723 55.102 C-15.249 40.362 -5.477 21.906 0 0 Z " fill="#FEFEF7" transform="translate(446,653)"/></g><g><path d="M0 0 C20.46 0 40.92 0 62 0 C62.495 8.415 62.495 8.415 63 17 C63.495 18.98 63.495 18.98 64 21 C64.191 22.593 64.348 24.191 64.481 25.79 C64.561 26.739 64.641 27.688 64.723 28.666 C64.805 29.689 64.888 30.712 64.973 31.766 C65.06 32.832 65.147 33.898 65.237 34.997 C65.422 37.259 65.604 39.522 65.784 41.785 C66.058 45.196 66.342 48.606 66.627 52.016 C66.805 54.224 66.983 56.432 67.16 58.641 C67.245 59.639 67.329 60.638 67.416 61.667 C68.079 70.187 68 78.368 68 87 C49.19 87 30.38 87 11 87 C9.206 75.636 7.467 64.343 6.062 52.938 C4.675 41.799 3.106 30.703 1.219 19.636 C1.059 18.658 0.899 17.68 0.734 16.672 C0.521 15.42 0.521 15.42 0.304 14.144 C-0.15 9.45 0 4.716 0 0 Z " fill="#FEFEF7" transform="translate(354,393)"/></g><g><path d="M0 0 C20.13 0 40.26 0 61 0 C61.165 8.972 61.33 17.944 61.5 27.188 C61.578 31.333 61.578 31.333 61.658 35.563 C61.97 52.713 62.043 69.847 62 87 C43.85 87 25.7 87 7 87 C5.236 70.239 3.7 53.565 2.704 36.747 C2.21 28.614 1.5 20.576 0.367 12.508 C-0.067 8.359 0 4.171 0 0 Z " fill="#FEFEF7" transform="translate(423,393)"/></g><g><path d="M0 0 C3.366 1.122 4.062 2.004 6.25 4.688 C12.082 11.838 19.068 16.493 27 21.062 C28.437 21.901 28.437 21.901 29.902 22.756 C39.626 28.409 49.427 33.926 59.23 39.44 C67.178 43.916 75.097 48.444 83 53 C84.138 53.655 85.277 54.311 86.45 54.986 C137.567 84.459 137.567 84.459 146 100 C146.486 100.893 146.972 101.787 147.473 102.707 C151.573 111.24 152.569 120.108 150.453 129.402 C148.706 133.995 146.08 135.992 141.816 138.058 C138.358 139.215 135.473 139.253 131.825 139.257 C131.11 139.261 130.395 139.264 129.658 139.268 C127.256 139.277 124.854 139.272 122.452 139.267 C120.715 139.271 118.978 139.276 117.241 139.281 C112.462 139.293 107.683 139.293 102.904 139.291 C97.752 139.29 92.599 139.301 87.447 139.311 C77.35 139.328 67.253 139.333 57.156 139.334 C48.949 139.335 40.741 139.339 32.533 139.346 C9.266 139.363 -14.001 139.372 -37.268 139.371 C-38.523 139.371 -39.778 139.371 -41.071 139.371 C-42.327 139.371 -43.583 139.37 -44.878 139.37 C-65.233 139.37 -85.589 139.389 -105.944 139.417 C-126.841 139.446 -147.739 139.459 -168.636 139.458 C-180.37 139.457 -192.104 139.463 -203.837 139.484 C-213.829 139.502 -223.821 139.507 -233.813 139.493 C-238.91 139.487 -244.007 139.486 -249.104 139.504 C-253.773 139.519 -258.443 139.517 -263.112 139.499 C-264.798 139.496 -266.484 139.5 -268.17 139.511 C-286.258 139.623 -286.258 139.623 -294 135 C-296.095 132.643 -296.933 131.273 -297.688 128.188 C-296.595 123.121 -293.172 120.829 -289 118 C-279.293 112.763 -267.729 112.693 -257 113 C-257.495 114.485 -257.495 114.485 -258 116 C-259.183 116.037 -260.367 116.075 -261.586 116.113 C-275.824 116.009 -275.824 116.009 -288 122 C-288.167 125.083 -288.167 125.083 -288 128 C-284.317 130.333 -281.156 130.25 -276.86 130.249 C-275.776 130.253 -275.776 130.253 -274.669 130.257 C-272.232 130.263 -269.796 130.255 -267.36 130.247 C-265.601 130.249 -263.841 130.251 -262.082 130.255 C-257.238 130.261 -252.394 130.255 -247.55 130.247 C-242.33 130.24 -237.109 130.245 -231.889 130.249 C-221.659 130.254 -211.43 130.248 -201.2 130.239 C-189.297 130.228 -177.394 130.229 -165.492 130.229 C-144.262 130.229 -123.031 130.22 -101.801 130.206 C-81.18 130.192 -60.559 130.185 -39.938 130.185 C-38.033 130.185 -38.033 130.185 -36.089 130.185 C-34.821 130.185 -33.553 130.186 -32.246 130.186 C-8.797 130.186 14.651 130.18 38.1 130.171 C46.406 130.168 54.712 130.167 63.017 130.167 C73.131 130.166 83.245 130.162 93.359 130.153 C98.524 130.148 103.689 130.145 108.853 130.146 C113.574 130.147 118.295 130.144 123.016 130.136 C124.731 130.135 126.446 130.135 128.16 130.136 C130.478 130.138 132.795 130.134 135.112 130.129 C136.403 130.128 137.694 130.127 139.025 130.126 C141.928 130.206 141.928 130.206 144 129 C146.955 120.135 145.633 111.836 141.562 103.688 C131.729 85.241 112.25 76.422 94.652 66.699 C88.135 63.093 81.689 59.37 75.25 55.625 C66.536 50.567 57.766 45.627 48.934 40.778 C44.714 38.46 40.499 36.135 36.283 33.81 C34.202 32.663 32.12 31.517 30.037 30.374 C4.608 16.359 4.608 16.359 0 4 C0 2.68 0 1.36 0 0 Z " fill="#F4F2F2" transform="translate(562,661)"/></g><g><path d="M0 0 C18.48 0 36.96 0 56 0 C56 9.436 55.92 18.56 55.254 27.924 C54.783 35.023 54.67 42.139 54.5 49.25 C54.196 61.849 53.63 74.407 53 87 C35.84 87 18.68 87 1 87 C-0.143 28.714 -0.143 28.714 0 0 Z " fill="#FEFEF7" transform="translate(491,393)"/></g><g><path d="M0 0 C18.15 0 36.3 0 55 0 C53.848 21.884 53.848 21.884 52.879 31.922 C52.774 33.036 52.669 34.15 52.561 35.297 C52.342 37.616 52.121 39.935 51.898 42.253 C51.562 45.758 51.233 49.264 50.904 52.77 C50.688 55.05 50.471 57.329 50.254 59.609 C50.158 60.632 50.062 61.654 49.963 62.707 C49.175 70.848 48.083 78.876 47 87 C30.5 87 14 87 -3 87 C-3 77.588 -2.945 68.243 -2.598 58.848 C-2.556 57.664 -2.514 56.48 -2.47 55.26 C-2.382 52.781 -2.292 50.301 -2.2 47.822 C-2.063 44.075 -1.931 40.327 -1.799 36.58 C-1.711 34.148 -1.623 31.717 -1.535 29.285 C-1.497 28.19 -1.458 27.095 -1.418 25.966 C-1.095 17.293 -0.542 8.671 0 0 Z " fill="#FEFEF7" transform="translate(554,393)"/></g><g><path d="M0 0 C7.284 -0.023 14.568 -0.041 21.853 -0.052 C25.235 -0.057 28.617 -0.064 31.999 -0.075 C35.883 -0.088 39.768 -0.093 43.652 -0.098 C44.872 -0.103 46.092 -0.108 47.349 -0.113 C49.03 -0.113 49.03 -0.113 50.746 -0.114 C51.738 -0.116 52.731 -0.118 53.754 -0.12 C56 0 56 0 57 1 C57.377 4.104 57.695 7.195 57.973 10.309 C58.06 11.263 58.147 12.218 58.237 13.202 C58.422 15.238 58.604 17.276 58.784 19.313 C59.056 22.366 59.341 25.418 59.627 28.471 C59.806 30.458 59.983 32.446 60.16 34.434 C60.245 35.322 60.329 36.21 60.416 37.125 C61.191 46.163 61 54.807 61 64 C43.51 64 26.02 64 8 64 C6.357 53.049 4.765 42.283 3.539 31.312 C2.875 25.711 1.937 20.149 0.965 14.594 C0.84 13.85 0.715 13.106 0.586 12.34 C0.473 11.694 0.36 11.048 0.244 10.383 C-0.111 6.914 -0.034 3.486 0 0 Z " fill="#FEFEF7" transform="translate(367,488)"/></g><g><path d="M0 0 C7.672 -0.025 15.344 -0.043 23.016 -0.055 C25.629 -0.06 28.241 -0.067 30.853 -0.075 C34.599 -0.088 38.344 -0.093 42.09 -0.098 C43.266 -0.103 44.442 -0.108 45.654 -0.113 C46.735 -0.113 47.816 -0.113 48.929 -0.114 C49.887 -0.116 50.844 -0.118 51.83 -0.12 C54 0 54 0 55 1 C55.161 3.844 55.26 6.665 55.316 9.512 C55.337 10.39 55.358 11.269 55.379 12.174 C55.423 14.053 55.464 15.932 55.503 17.811 C55.561 20.603 55.626 23.394 55.693 26.186 C55.735 28.023 55.776 29.861 55.816 31.699 C55.835 32.501 55.854 33.303 55.873 34.13 C56.08 44.422 56 54.7 56 65 C39.5 65 23 65 6 65 C3.749 57.12 3.749 57.12 3.402 52.734 C3.324 51.771 3.245 50.807 3.164 49.814 C3.089 48.803 3.014 47.792 2.938 46.75 C2.854 45.699 2.771 44.648 2.686 43.565 C2.11 36.072 1.654 28.574 1.342 21.065 C1.207 18.009 1.01 15.054 0.473 12.039 C0.058 9.37 -0.048 7 -0.03 4.31 C-0.025 3.502 -0.021 2.694 -0.017 1.862 C-0.011 1.247 -0.006 0.633 0 0 Z " fill="#FEFEF7" transform="translate(431,488)"/></g><g><path d="M0 0 C16.5 0 33 0 50 0 C50 18.062 50 18.062 49.258 24.975 C48.642 32.188 48.613 39.453 48.438 46.688 C48.293 52.401 48.149 58.114 48 64 C32.49 64 16.98 64 1 64 C-0.125 50.5 -0.125 50.5 -0.114 45.864 C-0.113 44.824 -0.113 43.784 -0.113 42.712 C-0.108 41.637 -0.103 40.561 -0.098 39.453 C-0.096 37.747 -0.096 37.747 -0.093 36.007 C-0.088 32.421 -0.075 28.836 -0.062 25.25 C-0.057 22.799 -0.053 20.349 -0.049 17.898 C-0.039 11.932 -0.019 5.966 0 0 Z " fill="#FEFEF7" transform="translate(493,488)"/></g><g><path d="M0 0 C16.5 0 33 0 50 0 C49.305 9.736 48.578 19.461 47.753 29.186 C47.626 30.685 47.501 32.184 47.378 33.684 C47.194 35.913 47.006 38.142 46.816 40.371 C46.708 41.67 46.599 42.968 46.487 44.306 C45.804 50.888 44.874 57.441 44 64 C28.82 64 13.64 64 -2 64 C-2 42.16 -2 42.16 -1.562 33.301 C-1.523 32.435 -1.484 31.57 -1.443 30.678 C-1.3 27.556 -1.15 24.434 -1 21.312 C-0.67 14.279 -0.34 7.246 0 0 Z " fill="#FEFEF7" transform="translate(550,488)"/></g><g><path d="M0 0 C17.49 0 34.98 0 53 0 C53.825 8.25 54.65 16.5 55.5 25 C55.761 27.59 56.022 30.179 56.291 32.848 C56.496 34.919 56.702 36.991 56.906 39.062 C57.014 40.123 57.122 41.183 57.233 42.275 C57.335 43.31 57.436 44.344 57.541 45.41 C57.63 46.298 57.719 47.187 57.81 48.102 C58.048 51.727 58 55.367 58 59 C41.5 59 25 59 8 59 C7.01 52.07 6.02 45.14 5 38 C4.01 31.869 3.012 25.741 1.971 19.619 C1.639 17.656 1.313 15.691 0.988 13.727 C0.798 12.598 0.608 11.47 0.411 10.307 C0 7 0 7 0 0 Z " fill="#FEFEF7" transform="translate(377,560)"/></g><g><path d="M0 0 C16.5 0 33 0 50 0 C50.816 19.694 51.13 39.293 51 59 C44.61 59.025 38.219 59.043 31.829 59.055 C29.653 59.06 27.477 59.067 25.302 59.075 C22.181 59.088 19.061 59.093 15.941 59.098 C14.473 59.105 14.473 59.105 12.974 59.113 C11.623 59.113 11.623 59.113 10.244 59.114 C9.447 59.116 8.65 59.118 7.829 59.12 C6 59 6 59 5 58 C4.721 55.599 4.5 53.217 4.316 50.809 C4.256 50.071 4.196 49.334 4.133 48.574 C3.939 46.195 3.75 43.816 3.562 41.438 C3.318 38.353 3.07 35.268 2.816 32.184 C2.754 31.419 2.691 30.655 2.627 29.867 C2.076 23.394 1.274 16.97 0.383 10.535 C0 7 0 7 0 0 Z " fill="#FEFEF7" transform="translate(437,560)"/></g><g><path d="M0 0 C15.18 0 30.36 0 46 0 C46 18.343 46 18.343 45.258 26.74 C44.769 32.92 44.629 39.117 44.438 45.312 C44.394 46.65 44.351 47.988 44.307 49.326 C44.202 52.551 44.1 55.775 44 59 C38.037 59.025 32.074 59.043 26.111 59.055 C24.08 59.06 22.05 59.067 20.02 59.075 C17.108 59.088 14.197 59.093 11.285 59.098 C9.915 59.105 9.915 59.105 8.517 59.113 C6.344 59.113 4.172 59.062 2 59 C-0.087 56.913 0.741 52.416 0.684 49.531 C0.663 48.663 0.642 47.795 0.621 46.9 C0.577 45.047 0.536 43.194 0.497 41.341 C0.439 38.567 0.373 35.793 0.307 33.02 C0.265 31.211 0.224 29.402 0.184 27.594 C0.165 26.788 0.146 25.982 0.127 25.151 C-0.046 16.764 0 8.396 0 0 Z " fill="#FEFEF7" transform="translate(494,560)"/></g><g><path d="M0 0 C14.85 0 29.7 0 45 0 C45 8.426 44.835 15.982 43.625 24.188 C43.347 26.178 43.071 28.169 42.797 30.16 C42.661 31.137 42.525 32.115 42.385 33.122 C41.709 38.18 41.172 43.253 40.647 48.329 C40.263 51.957 39.718 55.41 39 59 C25.47 59 11.94 59 -2 59 C-2.156 39.047 -2.022 19.839 0 0 Z " fill="#FEFEF7" transform="translate(547,560)"/></g><g><path d="M0 0 C9.9 0 19.8 0 30 0 C34.984 25.46 34.984 25.46 36.438 35.562 C37.702 44.209 39.717 52.64 41.844 61.112 C44.01 69.767 46 78.045 46 87 C37.09 87 28.18 87 19 87 C18.492 84.68 17.984 82.359 17.461 79.969 C12.881 59.052 12.881 59.052 7.812 38.25 C5.723 30.1 3.846 21.924 2.125 13.688 C1.802 12.146 1.802 12.146 1.472 10.573 C0 3.392 0 3.392 0 0 Z " fill="#FEFEF7" transform="translate(250,393)"/></g><g><path d="M0 0 C9.57 0 19.14 0 29 0 C29.598 3.114 30.196 6.229 30.812 9.438 C30.994 10.379 31.176 11.321 31.363 12.291 C32.56 18.553 33.685 24.827 34.786 31.106 C35.629 35.912 36.488 40.714 37.358 45.515 C37.982 48.968 38.6 52.423 39.217 55.878 C39.533 57.641 39.852 59.403 40.174 61.165 C40.648 63.765 41.112 66.367 41.574 68.969 C41.718 69.744 41.862 70.519 42.01 71.318 C42.963 76.762 43 81.313 43 87 C34.42 87 25.84 87 17 87 C13.592 72.987 10.721 58.899 7.938 44.75 C7.074 40.369 6.208 35.989 5.34 31.609 C5.135 30.574 4.931 29.538 4.72 28.471 C3.463 22.155 2.099 15.892 0.483 9.657 C0 7 0 7 0 0 Z " fill="#FEFEF7" transform="translate(288,393)"/></g><g><path d="M0 0 C4.804 3.294 8.915 7.947 11.051 13.406 C11.975 23.163 10.379 30.255 4.82 38.289 C-0.114 44.193 -6.957 46.836 -14.48 47.695 C-23.106 48.156 -28.814 45.193 -35.824 40.469 C-40.54 35.891 -43.658 30.636 -44.25 24.066 C-44.256 22.286 -44.256 22.286 -44.262 20.469 C-44.278 19.284 -44.295 18.099 -44.312 16.879 C-43.704 11.064 -40.927 6.605 -36.949 2.406 C-27.069 -4.473 -10.886 -5.264 0 0 Z " fill="#79A182" transform="translate(656.94921875,810.59375)"/></g><g><path d="M0 0 C0.579 0.394 1.158 0.789 1.754 1.195 C2.322 1.569 2.891 1.943 3.477 2.328 C7.329 5.187 10.324 8.605 11.754 13.195 C12.814 22.632 11.664 29.671 5.816 37.258 C-0.095 43.629 -7.656 47.468 -16.371 47.883 C-25.044 47.384 -31.997 43.446 -37.773 37.055 C-43.668 29.612 -44.303 22.616 -43.246 13.195 C-41.738 7.237 -38.319 3.957 -33.441 0.422 C-24.268 -4.704 -9.272 -5.189 0 0 Z " fill="#79A182" transform="translate(339.24609375,810.8046875)"/></g><g><path d="M0 0 C8.25 0 16.5 0 25 0 C24.394 4.85 23.785 9.46 22.836 14.219 C22.604 15.383 22.373 16.547 22.134 17.746 C21.884 18.985 21.633 20.224 21.375 21.5 C21.246 22.144 21.116 22.787 20.983 23.451 C18.608 35.272 16.064 47.054 13.449 58.824 C11.735 66.549 10.131 74.283 8.637 82.053 C8 85 8 85 7 87 C-0.59 87 -8.18 87 -16 87 C-15.346 80.458 -14.594 74.259 -13.293 67.863 C-13.045 66.611 -13.045 66.611 -12.791 65.334 C-12.441 63.567 -12.088 61.8 -11.733 60.033 C-10.814 55.45 -9.908 50.864 -9.004 46.277 C-8.827 45.382 -8.65 44.486 -8.468 43.563 C-6.912 35.634 -5.489 27.688 -4.192 19.712 C-3.417 15.021 -2.336 10.572 -1 6 C-0.67 4.02 -0.34 2.04 0 0 Z " fill="#FEFEF7" transform="translate(644,393)"/></g><g><path d="M0 0 C0.764 -0.008 1.529 -0.015 2.316 -0.023 C9.998 0.003 17.125 1.068 23.125 6.25 C27.38 11.602 27.74 17.329 27.508 23.988 C26.765 30.32 25.213 35.399 20.375 39.688 C13.364 43.058 7.865 44.76 0.125 44.688 C-1.008 44.717 -1.008 44.717 -2.164 44.748 C-8.621 44.742 -13.969 43.008 -18.715 38.504 C-19.077 37.946 -19.439 37.388 -19.812 36.812 C-20.193 36.257 -20.573 35.701 -20.965 35.129 C-24.429 27.978 -24.157 17.033 -21.688 9.625 C-19.268 5.12 -16.953 3.114 -12.262 1.164 C-8.083 0.036 -4.305 -0.043 0 0 Z " fill="#BD6835" transform="translate(807.875,267.75)"/></g><g><path d="M0 0 C7.26 0 14.52 0 22 0 C22.193 1.558 22.387 3.117 22.586 4.723 C22.849 6.836 23.112 8.949 23.375 11.062 C23.501 12.082 23.628 13.101 23.758 14.15 C24.167 17.434 24.582 20.717 25 24 C25.145 25.147 25.289 26.295 25.438 27.477 C26.343 34.482 27.369 41.455 28.508 48.426 C28.705 49.637 28.705 49.637 28.906 50.873 C29.448 54.194 29.992 57.515 30.546 60.834 C33.419 78.073 33.419 78.073 33 87 C27.06 87 21.12 87 15 87 C13.771 82.084 12.654 77.429 11.816 72.473 C11.613 71.277 11.409 70.08 11.199 68.848 C10.989 67.599 10.779 66.35 10.562 65.062 C10.119 62.457 9.675 59.852 9.23 57.246 C8.912 55.37 8.912 55.37 8.587 53.457 C7.002 44.13 5.394 34.82 3.438 25.562 C1.702 17.085 0.867 8.606 0 0 Z " fill="#FEFEF7" transform="translate(324,393)"/></g><g><path d="M0 0 C4.146 -0.029 8.292 -0.047 12.438 -0.062 C14.214 -0.075 14.214 -0.075 16.025 -0.088 C17.15 -0.091 18.275 -0.094 19.434 -0.098 C20.476 -0.103 21.518 -0.108 22.592 -0.114 C25 0 25 0 26 1 C26.381 2.553 26.709 4.118 27.016 5.688 C27.212 6.685 27.409 7.682 27.612 8.709 C27.823 9.795 28.033 10.881 28.25 12 C28.699 14.28 29.148 16.56 29.598 18.84 C29.829 20.019 30.059 21.199 30.297 22.414 C31.418 28.132 32.551 33.847 33.688 39.562 C33.89 40.589 34.092 41.616 34.3 42.674 C35.149 46.95 36.024 51.189 37.145 55.402 C37.881 58.499 38.074 60.862 38 64 C34.897 65.482 31.793 66.96 28.688 68.438 C27.806 68.858 26.925 69.279 26.018 69.713 C25.17 70.116 24.322 70.519 23.449 70.934 C22.669 71.305 21.889 71.677 21.085 72.06 C19 73 19 73 16 74 C15.835 73.235 15.67 72.47 15.5 71.681 C14.69 67.933 13.877 64.185 13.062 60.438 C12.836 59.394 12.836 59.394 12.604 58.329 C10.639 49.304 8.62 40.294 6.531 31.297 C6.326 30.411 6.12 29.525 5.908 28.613 C4.893 24.244 3.872 19.877 2.846 15.511 C2.471 13.907 2.097 12.303 1.723 10.699 C1.548 9.963 1.373 9.227 1.193 8.469 C0.519 5.571 0 2.986 0 0 Z " fill="#FEFEF7" transform="translate(288,560)"/></g><g><path d="M0 0 C8.58 0 17.16 0 26 0 C27.528 4.584 28.685 8.933 29.586 13.645 C29.729 14.373 29.872 15.101 30.019 15.851 C30.475 18.171 30.926 20.491 31.375 22.812 C31.962 25.841 32.553 28.868 33.148 31.895 C33.295 32.643 33.442 33.392 33.593 34.164 C34.81 40.27 36.218 46.322 37.762 52.353 C38.788 56.498 39 59.607 39 64 C30.75 64 22.5 64 14 64 C12.691 60.072 11.582 56.489 10.703 52.492 C10.469 51.436 10.236 50.379 9.995 49.291 C9.749 48.164 9.503 47.036 9.25 45.875 C8.993 44.704 8.735 43.533 8.47 42.326 C7.643 38.552 6.821 34.776 6 31 C5.712 29.683 5.424 28.365 5.136 27.048 C4.294 23.2 3.459 19.35 2.625 15.5 C2.362 14.296 2.1 13.092 1.829 11.851 C1.469 10.177 1.469 10.177 1.102 8.469 C0.888 7.483 0.675 6.498 0.456 5.482 C0 3 0 3 0 0 Z " fill="#FEFEF7" transform="translate(272,488)"/></g><g><path d="M0 0 C8.58 0 17.16 0 26 0 C28.427 11.76 30.705 23.543 32.839 35.359 C33.111 36.857 33.386 38.355 33.663 39.852 C34.06 41.997 34.446 44.142 34.828 46.289 C35.054 47.534 35.28 48.779 35.513 50.061 C36.084 54.675 36 59.351 36 64 C28.08 64 20.16 64 12 64 C7.424 41.257 7.424 41.257 5.367 30.508 C5.232 29.803 5.097 29.099 4.958 28.373 C4.291 24.894 3.627 21.414 2.968 17.933 C2.726 16.668 2.484 15.402 2.234 14.098 C2.02 12.969 1.806 11.839 1.585 10.676 C1.125 8.044 1.125 8.044 0 6 C0 4.02 0 2.04 0 0 Z " fill="#FEFEF7" transform="translate(307,488)"/></g><g><path d="M0 0 C7.26 0 14.52 0 22 0 C20.875 10.125 20.875 10.125 19.785 15.071 C19.545 16.171 19.305 17.271 19.057 18.405 C18.8 19.562 18.542 20.719 18.277 21.91 C17.88 23.722 17.88 23.722 17.475 25.571 C16.633 29.402 15.785 33.232 14.938 37.062 C14.363 39.671 13.79 42.28 13.217 44.889 C11.816 51.26 10.41 57.63 9 64 C2.07 64 -4.86 64 -12 64 C-12 53.891 -12 53.891 -11.082 50.293 C-10.882 49.472 -10.682 48.652 -10.476 47.806 C-10.257 46.942 -10.038 46.078 -9.812 45.188 C-7.338 34.953 -5.438 24.664 -3.7 14.28 C-3.507 13.145 -3.313 12.01 -3.113 10.84 C-2.946 9.833 -2.779 8.826 -2.607 7.789 C-2 5 -2 5 0 0 Z " fill="#FEFEF7" transform="translate(627,488)"/></g><g><path d="M0 0 C6.6 0 13.2 0 20 0 C18.783 9.23 17.237 18.323 15.409 27.45 C14.472 32.2 13.726 36.876 13.346 41.706 C13 44 13 44 12.061 47.281 C10.974 51.093 10.206 54.899 9.527 58.797 C9.399 59.512 9.271 60.228 9.14 60.965 C8.735 63.226 8.336 65.488 7.938 67.75 C7.535 70.026 7.131 72.302 6.725 74.578 C6.473 75.988 6.224 77.398 5.977 78.808 C5.474 81.632 4.909 84.273 4 87 C0.04 87 -3.92 87 -8 87 C-8.19 77.805 -7.595 68.933 -6.462 59.829 C-5.987 56.009 -5.537 52.186 -5.086 48.363 C-4.994 47.587 -4.902 46.81 -4.807 46.01 C-3.709 36.67 -2.826 27.312 -1.952 17.95 C-1.84 16.756 -1.728 15.562 -1.613 14.332 C-1.518 13.298 -1.423 12.264 -1.325 11.198 C-0.945 7.459 -0.466 3.73 0 0 Z " fill="#FEFEF7" transform="translate(617,393)"/></g><g><path d="M0 0 C1.488 0.007 2.977 0.019 4.465 0.035 C5.223 0.04 5.982 0.044 6.764 0.049 C8.643 0.061 10.523 0.079 12.402 0.098 C11.785 4.703 11.007 9.221 10.02 13.762 C9.604 15.671 9.604 15.671 9.181 17.618 C8.88 18.987 8.579 20.355 8.277 21.723 C8.124 22.422 7.971 23.122 7.813 23.843 C5.307 35.271 2.617 46.645 -0.167 58.009 C-2.523 67.664 -4.644 77.354 -6.598 87.098 C-11.548 87.098 -16.498 87.098 -21.598 87.098 C-20.936 78.293 -19.23 69.783 -17.41 61.16 C-17.096 59.652 -16.782 58.144 -16.468 56.635 C-14.267 46.099 -11.965 35.586 -9.598 25.085 C-7.986 17.92 -6.491 10.746 -5.141 3.527 C-4.285 -0.301 -4.167 0.113 0 0 Z " fill="#FEFEF7" transform="translate(681.59765625,392.90234375)"/></g><g><path d="M0 0 C7.92 0 15.84 0 24 0 C26.25 7.875 26.25 7.875 26.838 11.384 C26.971 12.169 27.105 12.953 27.243 13.762 C27.447 15.001 27.447 15.001 27.656 16.266 C27.804 17.14 27.952 18.014 28.104 18.914 C28.573 21.692 29.037 24.471 29.5 27.25 C29.963 30.009 30.428 32.768 30.893 35.526 C31.191 37.294 31.488 39.062 31.785 40.83 C32.806 46.896 33.866 52.954 35 59 C33.246 59.091 33.246 59.091 31.457 59.184 C29.909 59.268 28.361 59.353 26.812 59.438 C26.044 59.477 25.275 59.516 24.482 59.557 C21.25 59.737 18.192 59.962 15.012 60.598 C14.016 60.797 14.016 60.797 13 61 C11.435 59.435 11.44 57.641 11.02 55.488 C10.828 54.517 10.636 53.545 10.438 52.544 C10.232 51.478 10.025 50.411 9.812 49.312 C9.366 47.043 8.919 44.773 8.473 42.504 C8.117 40.689 8.117 40.689 7.754 38.836 C6.568 32.802 5.358 26.773 4.15 20.743 C3.51 17.553 2.872 14.363 2.234 11.172 C1.913 9.565 1.913 9.565 1.585 7.925 C1.057 5.283 0.528 2.642 0 0 Z " fill="#FEFEF7" transform="translate(321,560)"/></g><g><path d="M0 0 C6.93 0 13.86 0 21 0 C19.576 8.962 17.867 17.836 16.023 26.718 C15.564 28.93 15.109 31.144 14.654 33.357 C12.886 41.935 11.004 50.474 9 59 C2.07 59 -4.86 59 -12 59 C-10.59 51.13 -9.111 43.274 -7.607 35.421 C-6.698 30.678 -5.8 25.933 -4.922 21.184 C-4.659 19.771 -4.659 19.771 -4.39 18.33 C-4.055 16.53 -3.723 14.729 -3.395 12.928 C-3.241 12.108 -3.088 11.287 -2.93 10.441 C-2.798 9.727 -2.666 9.012 -2.531 8.276 C-1.876 5.466 -0.912 2.737 0 0 Z " fill="#FEFEF7" transform="translate(613,560)"/></g><g><path d="M0 0 C6.27 0 12.54 0 19 0 C21.422 13.606 23.499 27.223 25.188 40.938 C25.272 41.622 25.356 42.306 25.443 43.011 C26.341 50.336 27.203 57.664 28 65 C22.39 65 16.78 65 11 65 C10.674 63.225 10.348 61.45 10.012 59.621 C7.285 44.73 7.285 44.73 4.375 29.875 C3.302 24.571 2.281 19.261 1.312 13.938 C1.181 13.234 1.049 12.531 0.914 11.806 C0.183 7.721 0 4.215 0 0 Z " fill="#FEFEF7" transform="translate(340,488)"/></g><g><path d="M0 0 C4.62 0 9.24 0 14 0 C12.58 8.968 10.831 17.822 8.875 26.688 C8.727 27.364 8.579 28.04 8.426 28.736 C5.658 41.352 2.663 53.909 -0.422 66.45 C-0.67 67.456 -0.67 67.456 -0.922 68.482 C-1.367 70.292 -1.815 72.101 -2.263 73.911 C-2.903 76.593 -3.459 79.296 -4 82 C-8.29 82 -12.58 82 -17 82 C-15.427 72.006 -13.417 62.141 -11.312 52.25 C-10.96 50.585 -10.608 48.92 -10.256 47.255 C-6.914 31.487 -3.474 15.74 0 0 Z " fill="#FEFEF7" transform="translate(642,560)"/></g><g><path d="M0 0 C5.61 0 11.22 0 17 0 C20.703 19.607 24.068 39.046 25 59 C20.05 59 15.1 59 10 59 C9.662 57.106 9.325 55.213 8.977 53.262 C8.526 50.737 8.076 48.212 7.625 45.688 C7.403 44.444 7.182 43.201 6.953 41.92 C4.614 28.731 4.614 28.731 2.148 15.566 C2.02 14.898 1.891 14.23 1.758 13.541 C1.497 12.194 1.234 10.848 0.969 9.502 C0.344 6.239 0 3.341 0 0 Z " fill="#FEFEF7" transform="translate(352,560)"/></g><g><path d="M0 0 C1.395 0.007 2.789 0.019 4.184 0.035 C4.895 0.04 5.605 0.044 6.338 0.049 C8.099 0.061 9.86 0.079 11.621 0.098 C10.053 8.338 8.168 16.496 6.246 24.66 C5.933 25.999 5.619 27.337 5.306 28.676 C3.986 34.317 2.658 39.956 1.309 45.59 C1.125 46.36 0.941 47.13 0.751 47.924 C0.286 49.866 -0.183 51.808 -0.652 53.75 C-1.439 57.17 -1.439 57.17 -1.918 60.977 C-2.379 64.098 -2.379 64.098 -3.379 65.098 C-5.732 65.17 -8.087 65.181 -10.441 65.16 C-12.377 65.147 -12.377 65.147 -14.352 65.133 C-15.351 65.121 -16.35 65.11 -17.379 65.098 C-16.738 58.185 -15.521 51.555 -14.004 44.785 C-13.666 43.25 -13.666 43.25 -13.321 41.684 C-12.027 35.856 -10.638 30.063 -9.133 24.285 C-7.832 18.787 -6.791 13.234 -5.736 7.685 C-5.574 6.848 -5.413 6.011 -5.246 5.148 C-5.103 4.392 -4.96 3.636 -4.812 2.857 C-4.025 -0.34 -3.511 0.101 0 0 Z " fill="#FEFEF7" transform="translate(661.37890625,487.90234375)"/></g><g><path d="M0 0 C1.207 0.031 1.207 0.031 2.438 0.062 C-1.989 29.924 -25.06 50.21 -47.736 67.643 C-50.942 70.135 -54.091 72.699 -57.25 75.25 C-61.427 78.612 -65.631 81.887 -70 85 C-80.671 92.647 -90.679 101.219 -100.6 109.806 C-105.098 113.693 -109.694 117.435 -114.355 121.125 C-116.622 122.978 -116.622 122.978 -118.238 125.312 C-118.675 125.89 -119.112 126.467 -119.562 127.062 C-120.223 127.062 -120.882 127.062 -121.562 127.062 C-122.553 129.043 -122.553 129.043 -123.562 131.062 C-124.553 131.062 -125.543 131.062 -126.562 131.062 C-125.21 125.459 -122.663 122.601 -118.625 118.75 C-118.039 118.18 -117.454 117.609 -116.851 117.021 C-111.674 112.039 -106.189 107.526 -100.562 103.062 C-97.7 100.718 -94.851 98.358 -92 96 C-86.767 91.684 -81.515 87.395 -76.203 83.176 C-74.079 81.476 -71.966 79.764 -69.859 78.043 C-63.614 72.943 -57.366 67.869 -50.938 63 C-31.987 48.523 -8.937 29.956 -4.125 5.188 C-4.023 4.406 -3.921 3.625 -3.816 2.82 C-3.404 -0.035 -2.925 0.071 0 0 Z " fill="#A86139" transform="translate(436.5625,652.9375)"/></g><g><path d="M0 0 C2.832 0.033 5.664 0.065 8.496 0.098 C8.003 10.582 5.684 20.728 3.559 30.973 C2.837 34.469 2.12 37.967 1.406 41.465 C1.236 42.299 1.066 43.133 0.891 43.993 C-0.454 50.667 -1.573 57.352 -2.504 64.098 C-4.814 64.098 -7.124 64.098 -9.504 64.098 C-8.101 47.043 -6.673 29.992 -4.879 12.973 C-4.756 11.783 -4.633 10.594 -4.507 9.368 C-4.39 8.286 -4.273 7.204 -4.152 6.09 C-4.051 5.145 -3.95 4.2 -3.845 3.226 C-3.353 0.156 -3.153 0.123 0 0 Z " fill="#F4F2F2" transform="translate(610.50390625,487.90234375)"/></g><g><path d="M0 0 C3.547 1.961 5.758 4.637 8 8 C8.467 12.752 8.491 15.036 6.312 19.312 C2.769 23.43 0.539 24.777 -4.875 25.562 C-9.224 25.414 -11.537 23.479 -14.652 20.605 C-17.311 17.439 -17.281 13.995 -17.215 9.996 C-16.779 5.946 -14.884 3.754 -11.875 1.188 C-7.837 -0.481 -4.303 -0.826 0 0 Z " fill="#3B2429" transform="translate(328,818)"/></g><g><path d="M0 0 C4.107 1.774 6.699 4.165 9 8 C9.611 12.815 9.51 14.96 7.375 19.312 C3.997 23.135 1.039 24.703 -4 25.438 C-8.834 24.733 -11.787 22.455 -14.875 18.75 C-16.38 15.071 -16.926 11.858 -16 8 C-11.84 1.372 -7.887 -0.836 0 0 Z " fill="#3B2429" transform="translate(644,818)"/></g><g><path d="M0 0 C0.99 0 1.98 0 3 0 C5.27 5.653 6.789 11.09 7.938 17.062 C9.084 22.765 10.313 28.393 11.875 34 C14.755 44.451 16.95 55.067 19.254 65.657 C20.26 70.165 21.348 74.652 22.447 79.138 C22.97 81.844 23.106 84.254 23 87 C21.68 86.67 20.36 86.34 19 86 C14.045 64.376 9.111 42.749 4.438 21.062 C4.268 20.277 4.099 19.491 3.924 18.682 C1.075 5.451 1.075 5.451 0 0 Z " fill="#EBE6E4" transform="translate(237,393)"/></g><g><path d="M0 0 C1.32 0 2.64 0 4 0 C4.145 0.605 4.29 1.211 4.44 1.835 C4.886 3.695 5.332 5.555 5.778 7.416 C6.309 9.631 6.84 11.846 7.371 14.061 C8.841 20.193 10.32 26.323 11.816 32.449 C17.151 54.32 17.151 54.32 19.438 64.938 C19.601 65.682 19.765 66.426 19.934 67.193 C20.772 71.192 21.16 74.916 21 79 C19.515 78.505 19.515 78.505 18 78 C17.02 75.362 17.02 75.362 16.168 71.816 C16.011 71.178 15.854 70.54 15.692 69.882 C15.178 67.778 14.683 65.671 14.188 63.562 C13.835 62.104 13.482 60.645 13.128 59.187 C12.066 54.796 11.03 50.399 10 46 C9.706 44.75 9.413 43.499 9.11 42.211 C7.829 36.738 6.565 31.262 5.32 25.781 C4.481 22.089 3.625 18.401 2.742 14.719 C2.552 13.923 2.361 13.128 2.165 12.308 C1.818 10.866 1.469 9.424 1.116 7.983 C0.457 5.233 0 2.842 0 0 Z " fill="#EBE6E4" transform="translate(275,560)"/></g><g><path d="M0 0 C6.818 -0.025 13.635 -0.043 20.453 -0.055 C22.774 -0.06 25.095 -0.067 27.417 -0.075 C30.745 -0.088 34.074 -0.093 37.402 -0.098 C38.447 -0.103 39.492 -0.108 40.568 -0.113 C41.529 -0.113 42.49 -0.113 43.48 -0.114 C44.331 -0.116 45.181 -0.118 46.057 -0.12 C48 0 48 0 49 1 C49.041 2.666 49.043 4.334 49 6 C42.182 6.025 35.365 6.043 28.547 6.055 C26.226 6.06 23.905 6.067 21.583 6.075 C18.255 6.088 14.926 6.093 11.598 6.098 C10.03 6.105 10.03 6.105 8.432 6.113 C7.471 6.113 6.51 6.113 5.52 6.114 C4.669 6.116 3.819 6.118 2.943 6.12 C1 6 1 6 0 5 C-0.041 3.334 -0.043 1.666 0 0 Z " fill="#EBE6E4" transform="translate(388,636)"/></g><g><path d="M0 0 C6.248 -0.025 12.496 -0.043 18.744 -0.055 C20.871 -0.06 22.998 -0.067 25.126 -0.075 C28.176 -0.088 31.227 -0.093 34.277 -0.098 C35.713 -0.105 35.713 -0.105 37.178 -0.113 C38.499 -0.113 38.499 -0.113 39.847 -0.114 C40.627 -0.116 41.406 -0.118 42.209 -0.12 C44 0 44 0 45 1 C45 2.65 45 4.3 45 6 C30.15 6 15.3 6 0 6 C0 4.02 0 2.04 0 0 Z " fill="#EBE6E4" transform="translate(444,636)"/></g><g><path d="M0 0 C13.86 0 27.72 0 42 0 C42 1.98 42 3.96 42 6 C36.179 6.025 30.359 6.043 24.538 6.055 C22.556 6.06 20.574 6.067 18.593 6.075 C15.75 6.088 12.908 6.093 10.066 6.098 C8.729 6.105 8.729 6.105 7.364 6.113 C5.243 6.113 3.121 6.062 1 6 C0.67 5.67 0.34 5.34 0 5 C0 3.35 0 1.7 0 0 Z " fill="#EBE6E4" transform="translate(338,636)"/></g><g><path d="M0 0 C16.17 0 32.34 0 49 0 C49 1.65 49 3.3 49 5 C33.16 5 17.32 5 1 5 C0.67 3.35 0.34 1.7 0 0 Z " fill="#F4F2F2" transform="translate(386,625)"/></g><g><path d="M0 0 C1.32 0 2.64 0 4 0 C4.175 0.782 4.351 1.564 4.531 2.37 C5.374 6.122 6.218 9.873 7.062 13.625 C7.217 14.312 7.371 14.998 7.531 15.706 C9.328 23.689 11.146 31.667 13.023 39.633 C13.185 40.32 13.347 41.007 13.514 41.716 C14.293 45.025 15.076 48.332 15.865 51.639 C16.146 52.826 16.426 54.012 16.715 55.234 C16.964 56.278 17.212 57.322 17.469 58.397 C18 61 18 61 18 64 C16.68 64 15.36 64 14 64 C13.754 62.959 13.507 61.918 13.253 60.845 C12.716 58.576 12.179 56.308 11.642 54.039 C10.617 49.712 9.593 45.385 8.571 41.057 C5.959 30.01 5.959 30.01 3.289 18.977 C3.055 18.015 2.82 17.052 2.579 16.061 C2.165 14.366 1.746 12.672 1.322 10.98 C0.413 7.251 -0.236 3.846 0 0 Z " fill="#EBE6E4" transform="translate(259,488)"/></g><g><path d="M0 0 C13.2 0 26.4 0 40 0 C40 1.98 40 3.96 40 6 C26.8 6 13.6 6 0 6 C0 4.02 0 2.04 0 0 Z " fill="#EBE6E4" transform="translate(496,636)"/></g><g><path d="M0 0 C13.2 0 26.4 0 40 0 C40 1.65 40 3.3 40 5 C39 6 39 6 35.306 6.114 C33.661 6.113 32.016 6.108 30.371 6.098 C29.075 6.096 29.075 6.096 27.752 6.093 C24.981 6.088 22.209 6.075 19.438 6.062 C17.563 6.057 15.689 6.053 13.814 6.049 C9.21 6.038 4.605 6.021 0 6 C0 4.02 0 2.04 0 0 Z " fill="#EBE6E4" transform="translate(544,636)"/></g><g><path d="M0 0 C14.85 0 29.7 0 45 0 C45 1.65 45 3.3 45 5 C30.15 5 15.3 5 0 5 C0 3.35 0 1.7 0 0 Z " fill="#F4F2F2" transform="translate(443,625)"/></g><g><path d="M0 0 C13.53 0 27.06 0 41 0 C41 1.65 41 3.3 41 5 C27.47 5 13.94 5 0 5 C0 3.35 0 1.7 0 0 Z " fill="#F4F2F2" transform="translate(496,625)"/></g><g><path d="M0 0 C13.2 0 26.4 0 40 0 C40 1.65 40 3.3 40 5 C26.47 5 12.94 5 -1 5 C-0.67 3.35 -0.34 1.7 0 0 Z " fill="#F4F2F2" transform="translate(545,625)"/></g><g><path d="M0 0 C1.501 0.01 3.001 0.019 4.502 0.027 C8.147 0.049 11.792 0.084 15.438 0.125 C15.933 2.6 15.933 2.6 16.438 5.125 C2.248 5.125 -11.942 5.125 -26.562 5.125 C-26.233 4.135 -25.902 3.145 -25.562 2.125 C-17.278 -0.646 -8.628 -0.101 0 0 Z " fill="#EBE6E4" transform="translate(362.5625,624.875)"/></g><g><path d="M0 0 C1.98 0 3.96 0 6 0 C5.832 0.894 5.664 1.788 5.491 2.709 C3.252 14.637 1.031 26.568 -1.188 38.5 C-1.559 40.499 -1.931 42.497 -2.303 44.496 C-3.202 49.331 -4.101 54.165 -5 59 C-5.66 59 -6.32 59 -7 59 C-6.925 58.43 -6.85 57.86 -6.772 57.273 C-4.926 43.167 -3.348 29.053 -2.003 14.892 C-1.827 13.068 -1.827 13.068 -1.648 11.207 C-1.547 10.129 -1.446 9.051 -1.341 7.941 C-1.029 5.249 -0.576 2.647 0 0 Z " fill="#EBE6E4" transform="translate(600,560)"/></g><g><path d="M0 0 C0.674 -0.001 1.349 -0.002 2.043 -0.003 C3.468 -0.004 4.893 -0.002 6.318 0.002 C8.492 0.008 10.667 0.002 12.842 -0.004 C14.228 -0.003 15.614 -0.002 17 0 C18.259 0.001 19.517 0.002 20.814 0.003 C23.448 0.108 25.572 0.346 28.066 1.133 C28.066 1.793 28.066 2.453 28.066 3.133 C21.28 5.193 15.007 5.435 7.941 5.383 C6.883 5.391 5.825 5.398 4.734 5.406 C-0.535 5.393 -5.017 5.276 -9.934 3.133 C-9.934 2.473 -9.934 1.813 -9.934 1.133 C-6.441 -0.031 -3.684 0.003 0 0 Z " fill="#433036" transform="translate(744.93359375,860.8671875)"/></g><g><path d="M0 0 C8.58 0 17.16 0 26 0 C26 1.98 26 3.96 26 6 C17.42 6 8.84 6 0 6 C0 4.02 0 2.04 0 0 Z " fill="#EBE6E4" transform="translate(591,636)"/></g><g><path d="M0 0 C0.336 1.458 0.669 2.916 1 4.375 C1.186 5.187 1.371 5.999 1.562 6.836 C2 9 2 9 2 11 C-5.26 11 -12.52 11 -20 11 C-20 10.34 -20 9.68 -20 9 C-17.045 7.494 -14.085 5.996 -11.125 4.5 C-10.283 4.071 -9.441 3.641 -8.574 3.199 C-7.769 2.793 -6.963 2.387 -6.133 1.969 C-5.389 1.592 -4.646 1.215 -3.879 0.826 C-2 0 -2 0 0 0 Z " fill="#EBE6E4" transform="translate(328,631)"/></g><g><path d="M0 0 C8.91 0 17.82 0 27 0 C27 1.65 27 3.3 27 5 C17.76 5 8.52 5 -1 5 C-0.67 3.35 -0.34 1.7 0 0 Z " fill="#F4F2F2" transform="translate(593,625)"/></g><g><path d="M0 0 C5.626 0.402 8.235 1.966 12 6 C12.5 9.188 12.5 9.188 12 12 C11.34 12.66 10.68 13.32 10 14 C6.062 13.676 3.421 12.256 0.188 10.062 C-0.603 9.538 -1.393 9.013 -2.207 8.473 C-3.095 7.744 -3.095 7.744 -4 7 C-4 6.34 -4 5.68 -4 5 C-3.01 4.67 -2.02 4.34 -1 4 C-0.267 1.985 -0.267 1.985 0 0 Z " fill="#F4F2F2" transform="translate(587,662)"/></g><g><path d="M0 0 C1.65 0 3.3 0 5 0 C3.911 6.865 2.098 12.775 -1 19 C-1.99 19 -2.98 19 -4 19 C-4.99 19.66 -5.98 20.32 -7 21 C-4.305 12.754 -4.305 12.754 -2.938 9.375 C-1.727 6.309 -0.872 3.176 0 0 Z " fill="#BD6835" transform="translate(434,653)"/></g><g><path d="M0 0 C-0.33 0.99 -0.66 1.98 -1 3 C-2.218 3.061 -3.436 3.121 -4.691 3.184 C-6.315 3.268 -7.939 3.353 -9.562 3.438 C-10.362 3.477 -11.162 3.516 -11.986 3.557 C-15.698 3.754 -19.302 4.015 -22.965 4.66 C-24.467 4.828 -24.467 4.828 -26 5 C-26.66 4.34 -27.32 3.68 -28 3 C-18.482 0.788 -9.823 -0.447 0 0 Z " fill="#97A087" transform="translate(305,774)"/></g><g><path d="M0 0 C0.99 0.33 1.98 0.66 3 1 C1.688 3.938 1.688 3.938 0 7 C-0.99 7.33 -1.98 7.66 -3 8 C-4.209 10 -4.209 10 -5 12 C-5.99 12 -6.98 12 -8 12 C-6.65 6.33 -4.184 3.82 0 0 Z " fill="#BD6835" transform="translate(318,772)"/></g><g><path d="M0 0 C0.33 0.66 0.66 1.32 1 2 C7.93 2 14.86 2 22 2 C22 2.66 22 3.32 22 4 C14.08 4 6.16 4 -2 4 C-1.34 2.68 -0.68 1.36 0 0 Z " fill="#554349" transform="translate(743,862)"/></g><g><path d="M0 0 C0.99 0.495 0.99 0.495 2 1 C2.221 3.791 2.427 6.582 2.625 9.375 C2.689 10.169 2.754 10.963 2.82 11.781 C2.961 13.85 2.988 15.926 3 18 C2.34 18.66 1.68 19.32 1 20 C-0.238 13.344 -0.091 6.753 0 0 Z " fill="#554349" transform="translate(427,457)"/></g><g><path d="M0 0 C0.66 0.33 1.32 0.66 2 1 C1.875 3.25 1.875 3.25 1 6 C-2.062 8.312 -2.062 8.312 -5 10 C-5.66 9.67 -6.32 9.34 -7 9 C-5.65 4.581 -3.739 2.657 0 0 Z " fill="#B36D3F" transform="translate(371,728)"/></g><g><path d="M0 0 C0.66 0.33 1.32 0.66 2 1 C-7.41 10.595 -7.41 10.595 -12 14 C-12.66 13.67 -13.32 13.34 -14 13 C-12.045 11.018 -10.086 9.039 -8.125 7.062 C-7.569 6.499 -7.014 5.935 -6.441 5.354 C-2.227 1.113 -2.227 1.113 0 0 Z " fill="#31181F" transform="translate(328,754)"/></g><g><path d="M0 0 C0.33 0 0.66 0 1 0 C1.221 6.098 1.012 11.216 -1 17 C-1.33 17 -1.66 17 -2 17 C-1.86 14.354 -1.713 11.708 -1.562 9.062 C-1.523 8.308 -1.484 7.553 -1.443 6.775 C-1.113 1.113 -1.113 1.113 0 0 Z " fill="#4D3B3B" transform="translate(600,493)"/></g><g><path d="M0 0 C1.32 0.66 2.64 1.32 4 2 C2.904 3.009 1.798 4.007 0.688 5 C-0.235 5.835 -0.235 5.835 -1.176 6.688 C-3 8 -3 8 -6 8 C-5.188 6.062 -5.188 6.062 -4 4 C-3.01 3.67 -2.02 3.34 -1 3 C-0.67 2.01 -0.34 1.02 0 0 Z " fill="#BD6835" transform="translate(353,743)"/></g><g><path d="M0 0 C0.33 0 0.66 0 1 0 C1.33 6.27 1.66 12.54 2 19 C-1.375 14.5 -1.246 12.476 -0.688 7.25 C-0.626 6.553 -0.565 5.855 -0.502 5.137 C-0.349 3.423 -0.177 1.711 0 0 Z " fill="#765F62" transform="translate(425,419)"/></g><g><path d="M0 0 C0.985 0.009 1.97 0.018 2.984 0.027 C4.106 0.045 4.106 0.045 5.25 0.062 C5.25 0.393 5.25 0.722 5.25 1.062 C3.127 1.451 1.002 1.823 -1.125 2.188 C-2.9 2.501 -2.9 2.501 -4.711 2.82 C-5.714 2.9 -6.717 2.98 -7.75 3.062 C-8.41 2.403 -9.07 1.742 -9.75 1.062 C-6.439 0.061 -3.449 -0.041 0 0 Z " fill="#C4C7B9" transform="translate(286.75,775.9375)"/></g><g><path d="M0 0 C0.33 0 0.66 0 1 0 C1.953 4.763 2.083 9.167 2 14 C1.67 14 1.34 14 1 14 C1 12.02 1 10.04 1 8 C0.34 8 -0.32 8 -1 8 C-0.67 5.36 -0.34 2.72 0 0 Z " fill="#634D53" transform="translate(431,497)"/></g><g><path d="M0 0 C0.33 0 0.66 0 1 0 C1.236 5.778 0.868 10.513 -1 16 C-1.33 16 -1.66 16 -2 16 C-2.207 10.211 -1.592 5.571 0 0 Z " fill="#554349" transform="translate(605,444)"/></g><g><path d="M0 0 C2.64 0 5.28 0 8 0 C7.01 1.485 7.01 1.485 6 3 C3.375 3.188 3.375 3.188 1 3 C0.67 2.01 0.34 1.02 0 0 Z " fill="#3B2429" transform="translate(735,862)"/></g><g><path d="M0 0 C3.006 3.006 2.596 5.824 3 10 C1.5 8.938 1.5 8.938 0 7 C-0.188 3.312 -0.188 3.312 0 0 Z " fill="#433036" transform="translate(380,592)"/></g><g><path d="M0 0 C2.6 3.9 2.151 7.474 2 12 C0.438 10.5 0.438 10.5 -1 8 C-0.968 5.226 -0.504 2.747 0 0 Z " fill="#634D53" transform="translate(438,579)"/></g><g><path d="M0 0 C0.33 0 0.66 0 1 0 C1.953 4.763 2.083 9.167 2 14 C1.67 14 1.34 14 1 14 C1 12.02 1 10.04 1 8 C0.34 8 -0.32 8 -1 8 C-0.67 5.36 -0.34 2.72 0 0 Z " fill="#634D53" transform="translate(423,402)"/></g><g><path d="M0 0 C0.66 0.66 1.32 1.32 2 2 C-0.97 4.475 -0.97 4.475 -4 7 C-4 4 -4 4 -2 1.812 C-1.34 1.214 -0.68 0.616 0 0 Z " fill="#31181F" transform="translate(406,690)"/></g><g><path d="M0 0 C0.33 0 0.66 0 1 0 C1.369 5.538 1.369 5.538 -0.5 7.875 C-1.242 8.432 -1.242 8.432 -2 9 C-1.125 1.125 -1.125 1.125 0 0 Z " fill="#433036" transform="translate(612,529)"/></g></svg>