<svg width="33" height="33" viewBox="0 0 33 33" fill="none" xmlns="http://www.w3.org/2000/svg">
<path d="M16.1051 0.567383C7.31441 0.567383 0.172607 7.70918 0.172607 16.4999C0.172607 24.48 6.05861 31.0842 13.7246 32.2358L14.5563 32.3617V19.8069H10.7924V17.2581H14.5563V13.8732C14.5563 11.7889 15.0565 10.4162 15.8845 9.55489C16.7125 8.69362 17.9359 8.25924 19.6385 8.25924C20.9998 8.25924 21.5294 8.34172 22.0331 8.40351V10.4898H20.2608C19.2552 10.4898 18.4302 11.0509 18.0019 11.7982C17.5737 12.5455 17.4404 13.4378 17.4404 14.3471V17.2566H21.8747L21.4801 19.8055H17.4404V32.3815L18.2622 32.2698C26.0371 31.2153 32.0377 24.558 32.0377 16.4999C32.0377 7.70918 24.8959 0.567383 16.1051 0.567383ZM16.1051 2.01579C24.1131 2.01579 30.5892 8.49196 30.5892 16.4999C30.5892 23.5463 25.5457 29.3414 18.8888 30.646V21.2539H22.722L23.5636 15.8082H18.8888V14.3471C18.8888 13.5957 19.0263 12.9225 19.258 12.5182C19.4897 12.1138 19.713 11.9383 20.2608 11.9383H23.4816V7.09231L22.8535 7.00744C22.4192 6.94866 21.4275 6.81083 19.6385 6.81083C17.6809 6.81083 16.0005 7.3441 14.8406 8.55062C13.6807 9.75714 13.1079 11.5537 13.1079 13.8732V15.8096H9.34399V21.2553H13.1079V30.6007C6.55792 29.2132 1.62102 23.47 1.62102 16.4999C1.62102 8.49196 8.09718 2.01579 16.1051 2.01579Z" fill="white"/>
</svg>
