<svg width="47" height="44" viewBox="0 0 47 44" fill="none" xmlns="http://www.w3.org/2000/svg">
<g filter="url(#filter0_d_3_118)">
<path d="M31.5588 1.77272V0C31.5233 0 31.4861 1.65511e-07 31.4507 0.00354561L31.5588 1.77272ZM15.4412 1.77272L15.5493 0.00354561C15.5139 0.00130066 15.4784 0.000118149 15.443 0L15.4412 1.77272ZM23.5 33.6818L22.4895 35.1372C22.785 35.3423 23.1359 35.4526 23.4956 35.4535C23.8553 35.4545 24.2068 35.346 24.5034 35.1425L23.5 33.6818ZM31.4507 0.00354561C29.517 0.123275 27.6435 0.722775 25.9995 1.74791L27.8715 4.75799C29.0155 4.04387 30.3193 3.62592 31.6652 3.5419L31.4507 0.00354561ZM25.9995 1.74791C24.3636 2.76969 22.9955 4.1676 22.0091 5.82517L25.0529 7.64221C25.762 6.45626 26.7299 5.46885 27.8715 4.75799L25.9995 1.74791ZM24.9909 5.82517C24.005 4.1678 22.6375 2.76991 21.0022 1.74791L19.1267 4.75799C20.2683 5.46885 21.238 6.45626 21.9471 7.64221L24.9891 5.8234L24.9909 5.82517ZM21.0022 1.74791C19.3577 0.722495 17.4837 0.122985 15.5493 0.00354561L15.3331 3.5419C16.679 3.62592 17.9828 4.04387 19.1267 4.75799L21.0022 1.74791ZM15.4394 0C12.385 0 9.46712 1.25863 7.32744 3.47808L9.88016 5.93863C10.598 5.18606 11.4604 4.58619 12.4157 4.17496C13.3709 3.76373 14.3994 3.54962 15.4394 3.54545V0ZM7.32744 3.47808C5.18396 5.71657 3.99256 8.69825 4.00003 11.7975H7.54548C7.54548 9.58866 8.39285 7.48267 9.88016 5.93863L7.32744 3.47808ZM4.00003 11.7975C4.00003 14.703 5.32781 17.6209 7.06685 20.2356C8.82716 22.8841 11.1406 25.4209 13.4061 27.6049C16.2318 30.3135 19.2472 32.817 22.4293 35.0964L22.4718 35.1265L22.4842 35.1336L22.4878 35.1372L23.5 33.6818L24.5105 32.2264L24.5034 32.2193C24.4448 32.1794 24.3869 32.1386 24.3296 32.0969C23.4819 31.486 22.6467 30.8578 21.8248 30.2125C19.7544 28.5935 17.7665 26.8718 15.8684 25.0539C13.7004 22.9621 11.582 20.6256 10.0184 18.2732C8.43362 15.8889 7.54548 13.6766 7.54548 11.7975H4.00003ZM23.5 33.6818L24.5051 35.1425L24.5087 35.1389L24.5211 35.1301L24.5636 35.1017L24.7214 34.9918C24.8579 34.8943 25.0547 34.7543 25.3029 34.5734C28.2175 32.4556 30.9868 30.1447 33.5921 27.6563C35.8577 25.4776 38.1746 22.9444 39.9349 20.2888C41.6757 17.6634 43 14.7313 43 11.7975H39.4545C39.4545 13.712 38.5628 15.9421 36.9798 18.33C35.418 20.6877 33.3014 23.0171 31.1351 25.1C28.4857 27.6292 25.6593 29.9663 22.6775 32.0934L22.5374 32.1909L22.5037 32.2157L22.4966 32.2193V32.221L23.5 33.6818ZM43 11.7975C43.0074 8.69825 41.8143 5.71657 39.6708 3.47808L37.1181 5.93863C38.6246 7.51633 39.462 9.616 39.4545 11.7975H43ZM39.6708 3.47808C38.6222 2.3824 37.3633 1.50961 35.9694 0.911975C34.5755 0.31434 33.0754 0.00415655 31.5588 0V3.54545C33.6329 3.54545 35.6325 4.39813 37.1198 5.93863L39.6708 3.47808ZM22.0109 5.8234C21.9737 5.88544 22.0464 5.75781 22.1421 5.63904C22.3067 5.43793 22.5139 5.27589 22.7487 5.1646C22.9835 5.05332 23.2401 4.99557 23.5 4.99554V8.54099C23.8115 8.54098 24.1176 8.4597 24.3881 8.30519C24.6586 8.15068 24.8841 7.92827 25.0423 7.65994L25.0529 7.64221L22.0091 5.82517L22.0109 5.8234ZM21.9489 7.64221L21.9595 7.65994C22.0058 7.73667 22.0573 7.81011 22.1137 7.87976C22.2307 8.02158 22.6881 8.54099 23.5018 8.54099V4.99554C23.7619 4.99531 24.0189 5.05293 24.2541 5.16422C24.4892 5.27552 24.6967 5.4377 24.8615 5.63904C24.959 5.75781 25.0299 5.88722 24.9926 5.8234L21.9489 7.64221Z" fill="white"/>
</g>
<defs>
<filter id="filter0_d_3_118" x="0" y="0" width="47" height="43.4535" filterUnits="userSpaceOnUse" color-interpolation-filters="sRGB">
<feFlood flood-opacity="0" result="BackgroundImageFix"/>
<feColorMatrix in="SourceAlpha" type="matrix" values="0 0 0 0 0 0 0 0 0 0 0 0 0 0 0 0 0 0 127 0" result="hardAlpha"/>
<feOffset dy="4"/>
<feGaussianBlur stdDeviation="2"/>
<feComposite in2="hardAlpha" operator="out"/>
<feColorMatrix type="matrix" values="0 0 0 0 0 0 0 0 0 0 0 0 0 0 0 0 0 0 0.25 0"/>
<feBlend mode="normal" in2="BackgroundImageFix" result="effect1_dropShadow_3_118"/>
<feBlend mode="normal" in="SourceGraphic" in2="effect1_dropShadow_3_118" result="shape"/>
</filter>
</defs>
</svg>
