<svg width="33" height="33" viewBox="0 0 33 33" fill="none" xmlns="http://www.w3.org/2000/svg">
<path d="M10.377 0.567383C5.18626 0.567383 0.962341 4.7913 0.962341 9.98206V23.0178C0.962341 28.2085 5.18626 32.4324 10.377 32.4324H23.4127C28.6035 32.4324 32.8274 28.2085 32.8274 23.0178V9.98206C32.8274 4.7913 28.6035 0.567383 23.4127 0.567383H10.377ZM10.377 2.01579H23.4127C27.8206 2.01579 31.379 5.57419 31.379 9.98206V23.0178C31.379 27.4256 27.8206 30.984 23.4127 30.984H10.377C5.96915 30.984 2.41075 27.4256 2.41075 23.0178V9.98206C2.41075 5.57419 5.96915 2.01579 10.377 2.01579ZM25.5853 6.36103C25.2012 6.36103 24.8328 6.51363 24.5611 6.78526C24.2895 7.05689 24.1369 7.4253 24.1369 7.80944C24.1369 8.19358 24.2895 8.56199 24.5611 8.83362C24.8328 9.10525 25.2012 9.25785 25.5853 9.25785C25.9695 9.25785 26.3379 9.10525 26.6095 8.83362C26.8811 8.56199 27.0337 8.19358 27.0337 7.80944C27.0337 7.4253 26.8811 7.05689 26.6095 6.78526C26.3379 6.51363 25.9695 6.36103 25.5853 6.36103ZM16.8949 8.53364C12.5038 8.53364 8.9286 12.1088 8.9286 16.4999C8.9286 20.891 12.5038 24.4662 16.8949 24.4662C21.2859 24.4662 24.8611 20.891 24.8611 16.4999C24.8611 12.1088 21.2859 8.53364 16.8949 8.53364ZM16.8949 9.98206C20.5032 9.98206 23.4127 12.8916 23.4127 16.4999C23.4127 20.1082 20.5032 23.0178 16.8949 23.0178C13.2866 23.0178 10.377 20.1082 10.377 16.4999C10.377 12.8916 13.2866 9.98206 16.8949 9.98206Z" fill="white"/>
</svg>
