<svg width="36" height="36" viewBox="0 0 36 36" fill="none" xmlns="http://www.w3.org/2000/svg">
<g clip-path="url(#clip0_38_4)">
<path d="M35.934 19.0277L27.2364 19.0618C27.3603 12.7216 29.1553 11.9949 31.4126 11.7807L32.2829 11.6693L32.2556 4.69822L31.2521 4.75596C28.3041 4.93344 25.0463 5.47785 22.8819 8.17167C20.9846 10.5331 20.1591 14.3822 20.1823 20.2859L20.2252 31.2254L35.9816 31.1636L35.934 19.0277Z" fill="#888888"/>
<path d="M15.8786 31.2422L15.831 19.1063L7.24954 19.14C7.37337 12.7998 9.11027 12.0733 11.3675 11.859L12.1799 11.7479L12.1526 4.77684L11.207 4.83434C8.25907 5.01183 4.97205 5.55635 2.80766 8.25017C0.910553 10.6116 0.0561381 14.4609 0.0792906 20.3645L0.122192 31.304L15.8786 31.2422Z" fill="#888888"/>
</g>
<defs>
<clipPath id="clip0_38_4">
<rect width="35.8596" height="35.8645" fill="white" transform="matrix(-0.999992 0.00392277 -0.0039217 -0.999992 36 35.8643)"/>
</clipPath>
</defs>
</svg>
