<svg width="36" height="28" viewBox="0 0 36 28" fill="none" xmlns="http://www.w3.org/2000/svg">
<path d="M0 12.9022H8.73163C8.58236 19.2667 6.77745 19.9892 4.51054 20.1954L3.63636 20.3038V27.3022L4.644 27.2482C7.60418 27.0816 10.8769 26.5479 13.0604 23.8521C14.9744 21.4888 15.8182 17.628 15.8182 11.7011V0.71875H0V12.9022Z" fill="#888888"/>
<path d="M20.1818 0.71875V12.9022H28.7969C28.6476 19.2667 26.9011 19.9892 24.6342 20.1954L23.8182 20.3038V27.3022L24.7676 27.2482C27.7278 27.0816 31.0298 26.5479 33.2133 23.8521C35.1271 21.4888 36 17.628 36 11.7011V0.71875H20.1818Z" fill="#888888"/>
</svg>
