<svg width="37" height="31" viewBox="0 0 37 31" fill="none" xmlns="http://www.w3.org/2000/svg">
<path d="M25.1226 0.355469C20.7915 0.355469 17.2695 3.87748 17.2695 8.20857C17.2695 8.46884 17.3345 8.72344 17.36 8.97804C12.0048 8.46601 7.26921 5.88602 4.05272 1.93967C3.90278 1.75013 3.67081 1.64829 3.42752 1.66526C3.18707 1.68224 2.97207 1.82085 2.85325 2.03019C2.17714 3.19288 1.78957 4.53097 1.78957 5.96806C1.78957 7.70785 2.41194 9.30054 3.37377 10.6075C3.18707 10.5255 2.98338 10.4802 2.80799 10.3812C2.5845 10.2624 2.31576 10.268 2.09793 10.3982C1.8801 10.5283 1.74714 10.7631 1.74431 11.0149V11.1054C1.74431 13.7731 3.12483 16.09 5.16166 17.5101C5.13903 17.5073 5.11639 17.5157 5.09376 17.5101C4.84482 17.4677 4.59304 17.5554 4.42614 17.7449C4.25923 17.9344 4.20548 18.1975 4.27903 18.438C5.08811 20.9529 7.15322 22.8737 9.71057 23.5753C7.67374 24.7861 5.31159 25.499 2.76273 25.499C2.21108 25.499 1.68208 25.4707 1.15589 25.4085C0.816423 25.3632 0.491096 25.5612 0.37794 25.8837C0.261953 26.2062 0.389255 26.5655 0.680635 26.7437C3.94805 28.8399 7.82651 30.0705 11.9963 30.0705C18.7547 30.0705 24.0561 27.2473 27.612 23.2132C31.168 19.1792 33.0209 13.94 33.0209 9.04594C33.0209 8.83943 33.004 8.63857 32.9983 8.43489C34.3251 7.4193 35.5104 6.22832 36.4383 4.83649C36.6222 4.56774 36.6024 4.20847 36.3902 3.95952C36.1809 3.71058 35.8272 3.6342 35.533 3.77281C35.1596 3.93972 34.724 3.95669 34.3336 4.08965C34.8484 3.40222 35.2897 2.66105 35.5557 1.82651C35.6462 1.54079 35.5472 1.22678 35.3124 1.04007C35.0776 0.856189 34.7494 0.833557 34.492 0.989149C33.2557 1.72184 31.8865 2.23671 30.441 2.55072C29.0378 1.23809 27.1905 0.355469 25.1226 0.355469ZM25.1226 1.80388C26.9699 1.80388 28.6389 2.59315 29.8073 3.84071C29.9827 4.02176 30.2401 4.09814 30.4862 4.04439C31.4311 3.85768 32.3279 3.58328 33.202 3.22966C32.6984 3.9086 32.0761 4.48853 31.3462 4.92702C31.0152 5.08827 30.8596 5.47017 30.9813 5.81813C31.1001 6.16326 31.4622 6.36411 31.8215 6.2849C32.5457 6.19721 33.1907 5.903 33.8809 5.71912C33.2614 6.38957 32.5825 6.99496 31.8441 7.52963C31.6433 7.67674 31.5329 7.91437 31.5499 8.16331C31.5612 8.45752 31.5725 8.7489 31.5725 9.04594C31.5725 13.5722 29.8356 18.4861 26.5257 22.2401C23.2159 25.994 18.3558 28.6221 11.9963 28.6221C9.10801 28.6221 6.38092 27.9828 3.91693 26.8569C6.97217 26.6221 9.78978 25.5414 12.0642 23.7564C12.3019 23.5668 12.3952 23.25 12.299 22.9614C12.2029 22.6729 11.9369 22.4749 11.6342 22.4664C9.24663 22.4239 7.24658 21.0349 6.18007 19.0717C6.21968 19.0717 6.25362 19.0717 6.29323 19.0717C7.00895 19.0717 7.71618 18.9811 8.37532 18.8001C8.69216 18.7067 8.90999 18.4125 8.89867 18.0815C8.88735 17.7505 8.65255 17.4677 8.33006 17.3969C5.7529 16.8764 3.82075 14.7773 3.37377 12.1691C4.10364 12.4208 4.85047 12.6189 5.65955 12.6443C5.99053 12.6641 6.2904 12.4576 6.39224 12.1436C6.49408 11.8296 6.36961 11.4845 6.08955 11.3091C4.36956 10.1577 3.23799 8.19726 3.23799 5.96806C3.23799 5.14202 3.45298 4.38386 3.73588 3.65966C7.3569 7.6343 12.4263 10.2737 18.1521 10.5622C18.3784 10.5736 18.5991 10.4802 18.7462 10.3076C18.8933 10.1322 18.9499 9.90027 18.8989 9.67962C18.7886 9.21002 18.7179 8.71212 18.7179 8.20857C18.7179 4.6611 21.5751 1.80388 25.1226 1.80388Z" fill="white"/>
</svg>
