<svg width="50" height="48" viewBox="0 0 50 48" fill="none" xmlns="http://www.w3.org/2000/svg">
<path d="M5 37.5V42.5H45V37.5H5ZM5 10H10.5C10.2917 9.625 10.1562 9.22917 10.0938 8.8125C10.0312 8.39583 10 7.95833 10 7.5C10 5.41667 10.7292 3.64583 12.1875 2.1875C13.6458 0.729167 15.4167 0 17.5 0C18.75 0 19.9062 0.322917 20.9688 0.96875C22.0312 1.61458 22.9583 2.41667 23.75 3.375L25 5L26.25 3.375C27 2.375 27.9167 1.5625 29 0.9375C30.0833 0.3125 31.25 0 32.5 0C34.5833 0 36.3542 0.729167 37.8125 2.1875C39.2708 3.64583 40 5.41667 40 7.5C40 7.95833 39.9688 8.39583 39.9062 8.8125C39.8438 9.22917 39.7083 9.625 39.5 10H45C46.375 10 47.5521 10.4896 48.5312 11.4688C49.5104 12.4479 50 13.625 50 15V42.5C50 43.875 49.5104 45.0521 48.5312 46.0312C47.5521 47.0104 46.375 47.5 45 47.5H5C3.625 47.5 2.44792 47.0104 1.46875 46.0312C0.489583 45.0521 0 43.875 0 42.5V15C0 13.625 0.489583 12.4479 1.46875 11.4688C2.44792 10.4896 3.625 10 5 10ZM5 30H45V15H32.25L37.5 22.125L33.5 25L25 13.5L16.5 25L12.5 22.125L17.625 15H5V30ZM17.5 10C18.2083 10 18.8021 9.76042 19.2812 9.28125C19.7604 8.80208 20 8.20833 20 7.5C20 6.79167 19.7604 6.19792 19.2812 5.71875C18.8021 5.23958 18.2083 5 17.5 5C16.7917 5 16.1979 5.23958 15.7188 5.71875C15.2396 6.19792 15 6.79167 15 7.5C15 8.20833 15.2396 8.80208 15.7188 9.28125C16.1979 9.76042 16.7917 10 17.5 10ZM32.5 10C33.2083 10 33.8021 9.76042 34.2812 9.28125C34.7604 8.80208 35 8.20833 35 7.5C35 6.79167 34.7604 6.19792 34.2812 5.71875C33.8021 5.23958 33.2083 5 32.5 5C31.7917 5 31.1979 5.23958 30.7188 5.71875C30.2396 6.19792 30 6.79167 30 7.5C30 8.20833 30.2396 8.80208 30.7188 9.28125C31.1979 9.76042 31.7917 10 32.5 10Z" fill="#E8EAED"/>
</svg>
