<svg width="54" height="60" viewBox="0 0 54 60" fill="none" xmlns="http://www.w3.org/2000/svg">
<path d="M27 59.125C23.3792 59.125 19.9875 58.4375 16.825 57.0625C13.6625 55.6875 10.901 53.8198 8.54063 51.4594C6.18021 49.099 4.3125 46.3375 2.9375 43.175C1.5625 40.0125 0.875 36.6208 0.875 33C0.875 29.3792 1.5625 25.9875 2.9375 22.825C4.3125 19.6625 6.18021 16.901 8.54063 14.5406C10.901 12.1802 13.6625 10.3125 16.825 8.9375C19.9875 7.5625 23.3792 6.875 27 6.875V0L38 11L27 22V15.125C22.05 15.125 17.8333 16.8667 14.35 20.35C10.8667 23.8333 9.125 28.05 9.125 33C9.125 36.025 9.82396 38.8323 11.2219 41.4219C12.6198 44.0115 14.4875 46.1083 16.825 47.7125C17.5583 46.4292 18.6469 45.3406 20.0906 44.4469C21.5344 43.5531 23.1958 42.9917 25.075 42.7625C24.9375 41.8 24.7542 40.8375 24.525 39.875C24.2958 38.9125 24.0208 38.0187 23.7 37.1938C23.1958 37.6063 22.6458 37.9271 22.05 38.1562C21.4542 38.3854 20.8125 38.5 20.125 38.5C18.6125 38.5 17.3177 37.9615 16.2406 36.8844C15.1635 35.8073 14.625 34.5125 14.625 33V30.25C14.625 29.4708 14.499 28.7375 14.2469 28.05C13.9948 27.3625 13.6625 26.7208 13.25 26.125C15.5417 26.0792 17.5813 26.2854 19.3687 26.7438C20.9271 27.1562 22.3479 27.8323 23.6313 28.7719C24.9146 29.7115 25.5792 31.1208 25.625 33C25.625 33.4125 25.5906 33.7906 25.5219 34.1344C25.4531 34.4781 25.3271 34.8333 25.1438 35.2C24.5479 34.7417 23.9521 34.3292 23.3563 33.9625C22.7604 33.5958 22.1417 33.275 21.5 33C22.2792 33.5958 23.1729 34.5125 24.1812 35.75C25.1896 36.9875 26.1292 38.4542 27 40.15C27.9167 37.9042 29.0625 35.6927 30.4375 33.5156C31.8125 31.3385 33.4167 29.3333 35.25 27.5C34.1958 28.2333 33.1875 29.0125 32.225 29.8375C31.2625 30.6625 30.3229 31.5333 29.4062 32.45C29.0854 31.9458 28.8333 31.3844 28.65 30.7656C28.4667 30.1469 28.375 29.5167 28.375 28.875C28.375 26.95 29.0396 25.3229 30.3688 23.9937C31.6979 22.6646 33.325 22 35.25 22H38C39.0542 22 39.925 21.8625 40.6125 21.5875C41.3 21.3125 41.8729 20.9917 42.3312 20.625C42.8354 20.2125 43.225 19.7542 43.5 19.25C43.6833 22.3208 43.5229 25.0708 43.0187 27.5C42.6063 29.5625 41.8271 31.4531 40.6813 33.1719C39.5354 34.8906 37.725 35.75 35.25 35.75C34.5625 35.75 33.9094 35.6583 33.2906 35.475C32.6719 35.2917 32.1104 35.0396 31.6063 34.7188C31.2854 35.5896 30.9188 36.7469 30.5063 38.1906C30.0938 39.6344 29.7729 41.1813 29.5438 42.8312C31.2854 43.1521 32.8208 43.7479 34.15 44.6188C35.4792 45.4896 36.4875 46.5208 37.175 47.7125C39.5125 46.1083 41.3802 44.0229 42.7781 41.4562C44.176 38.8896 44.875 36.0708 44.875 33H53.125C53.125 36.6208 52.4375 40.0125 51.0625 43.175C49.6875 46.3375 47.8198 49.099 45.4594 51.4594C43.099 53.8198 40.3375 55.6875 37.175 57.0625C34.0125 58.4375 30.6208 59.125 27 59.125Z" fill="#E8EAED"/>
</svg>
