<svg width="52" height="51" viewBox="0 0 52 51" fill="none" xmlns="http://www.w3.org/2000/svg">
<path d="M36.6667 27.4168L26.6375 17.6293C25.3889 16.421 24.3316 15.0818 23.4656 13.6116C22.5996 12.1415 22.1667 10.5404 22.1667 8.8085C22.1667 6.59322 22.942 4.71023 24.4927 3.15954C26.0434 1.60884 27.9264 0.833496 30.1417 0.833496C31.4305 0.833496 32.6389 1.10537 33.7667 1.64912C34.8944 2.19287 35.8611 2.92794 36.6667 3.85433C37.4722 2.92794 38.4389 2.19287 39.5667 1.64912C40.6944 1.10537 41.9028 0.833496 43.1917 0.833496C45.4069 0.833496 47.2899 1.60884 48.8406 3.15954C50.3913 4.71023 51.1667 6.59322 51.1667 8.8085C51.1667 10.5404 50.7437 12.1415 49.8979 13.6116C49.0521 15.0818 48.0049 16.421 46.7562 17.6293L36.6667 27.4168ZM36.6667 20.6502L43.2521 14.1856C44.0174 13.4203 44.7222 12.6047 45.3667 11.7387C46.0111 10.8727 46.3333 9.896 46.3333 8.8085C46.3333 7.92238 46.0312 7.17725 45.4271 6.57308C44.8229 5.96891 44.0778 5.66683 43.1917 5.66683C42.6278 5.66683 42.0941 5.77759 41.5906 5.99912C41.0871 6.22065 40.6542 6.55294 40.2917 6.996L36.6667 11.346L33.0417 6.996C32.6792 6.55294 32.2462 6.22065 31.7427 5.99912C31.2392 5.77759 30.7055 5.66683 30.1417 5.66683C29.2555 5.66683 28.5104 5.96891 27.9062 6.57308C27.3021 7.17725 27 7.92238 27 8.8085C27 9.896 27.3222 10.8727 27.9667 11.7387C28.6111 12.6047 29.316 13.4203 30.0812 14.1856L36.6667 20.6502ZM14.9167 40.7085L31.7125 45.3002L46.0917 40.8293C45.8903 40.4668 45.5983 40.1547 45.2156 39.8929C44.833 39.6311 44.4 39.5002 43.9167 39.5002H31.7125C30.625 39.5002 29.759 39.4599 29.1146 39.3793C28.4701 39.2988 27.8055 39.1377 27.1208 38.896L21.5021 37.0231L22.8312 32.3106L27.725 33.9418C28.4097 34.1432 29.2153 34.3043 30.1417 34.4252C31.068 34.546 32.4375 34.6266 34.25 34.6668C34.25 34.2238 34.1191 33.8009 33.8573 33.3981C33.5955 32.9953 33.2833 32.7335 32.9208 32.6127L18.7833 27.4168H14.9167V40.7085ZM0.41666 49.1668V22.5835H18.7833C19.0653 22.5835 19.3472 22.6137 19.6292 22.6741C19.9111 22.7345 20.1729 22.805 20.4146 22.8856L34.6125 28.1418C35.9417 28.6252 37.0191 29.471 37.8448 30.6793C38.6705 31.8877 39.0833 33.2168 39.0833 34.6668H43.9167C45.9305 34.6668 47.6424 35.3314 49.0521 36.6606C50.4618 37.9897 51.1667 39.7418 51.1667 41.9168V44.3335L31.8333 50.3752L14.9167 45.6627V49.1668H0.41666ZM5.24999 44.3335H10.0833V27.4168H5.24999V44.3335Z" fill="#E8EAED"/>
</svg>
