<svg width="36" height="27" viewBox="0 0 36 27" fill="none" xmlns="http://www.w3.org/2000/svg">
<path d="M17.9407 0.216797C12.4602 0.216797 7.3137 0.63189 4.57343 1.21237C2.74767 1.62747 1.16837 2.87275 0.837588 4.78282C0.506811 6.77398 0.172791 9.76395 0.172791 13.4998C0.172791 17.2356 0.503569 20.1413 0.918662 22.2167C1.25268 24.0425 2.82874 25.3721 4.6545 25.7872C7.5634 26.3677 12.5413 26.7828 18.0218 26.7828C23.5023 26.7828 28.4802 26.3677 31.3859 25.7872C33.2149 25.3721 34.7909 24.1268 35.1217 22.2167C35.4557 20.1413 35.8708 17.1546 35.9519 13.4187C35.9519 9.68287 35.5368 6.6929 35.1217 4.61744C34.7909 2.79167 33.2149 1.46208 31.3859 1.04698C28.4802 0.63189 23.418 0.216797 17.9407 0.216797ZM17.9407 1.87717C23.9174 1.87717 28.7299 2.37334 31.0551 2.78843C32.3004 3.12245 33.296 3.95264 33.4613 5.03253C33.9608 7.68848 34.2915 10.5131 34.2915 13.4187C34.2105 16.9859 33.7954 19.8916 33.4613 21.967C33.2149 23.5431 31.5545 24.0425 31.0551 24.2111C28.0651 24.7916 23.084 25.2035 18.1029 25.2035C13.1218 25.2035 8.05957 24.8727 5.15391 24.2111C3.90863 23.8771 2.91306 23.0469 2.74767 21.967C2.08287 19.6419 1.83316 16.5708 1.83316 13.4998C1.83316 9.67963 2.16718 6.85829 2.49796 5.11685C2.74767 3.53754 4.48911 3.03814 4.90421 2.87275C7.64447 2.29226 12.7099 1.87717 17.9407 1.87717ZM13.4558 6.85829V20.1413L25.0784 13.4998L13.4558 6.85829ZM15.1162 9.68287L21.7577 13.4998L15.1162 17.3167V9.68287Z" fill="white"/>
</svg>
