<svg width="35" height="35" viewBox="0 0 30 35" fill="none" xmlns="http://www.w3.org/2000/svg">
<path d="M27.66 32.7988V30.3184C27.66 28.647 27.66 27.8122 27.4667 27.1297C27.2283 26.2846 26.7771 25.5148 26.1563 24.8939C25.5354 24.273 24.7656 23.8218 23.9205 23.5835C23.2379 23.3902 22.4031 23.3902 20.7318 23.3902H8.9282C7.25688 23.3902 6.42207 23.3902 5.73952 23.5835C4.89442 23.8218 4.12462 24.273 3.50374 24.8939C2.88285 25.5148 2.43166 26.2846 2.19331 27.1297C2 27.8122 2 28.647 2 30.3184V32.7988M22.8701 8.95215C22.8701 12.7926 19.6541 15.906 15.6853 15.906C11.7166 15.906 8.50053 12.7926 8.50053 8.95215C8.50053 5.1117 11.7166 2 15.6853 2C19.6541 2 22.8701 5.11341 22.8701 8.95215Z" stroke="black" stroke-width="3" stroke-linecap="round" stroke-linejoin="round"/>
</svg>
